<?xml version="1.0" encoding="UTF-8" standalone="no"?>
<!-- Created with Inkscape (http://www.inkscape.org/) -->

<svg
   xmlns:dc="http://purl.org/dc/elements/1.1/"
   xmlns:cc="http://creativecommons.org/ns#"
   xmlns:rdf="http://www.w3.org/1999/02/22-rdf-syntax-ns#"
   xmlns:svg="http://www.w3.org/2000/svg"
   xmlns="http://www.w3.org/2000/svg"
   xmlns:sodipodi="http://sodipodi.sourceforge.net/DTD/sodipodi-0.dtd"
   xmlns:inkscape="http://www.inkscape.org/namespaces/inkscape"
   width="53.149605"
   height="88.582672"
   id="svg2"
   version="1.1"
   inkscape:version="0.48.4 r9939"
   sodipodi:docname="franc-digit.svg">
  <sodipodi:namedview
     id="base"
     pagecolor="#ffffff"
     bordercolor="#666666"
     borderopacity="1.0"
     inkscape:pageopacity="0.0"
     inkscape:pageshadow="2"
     inkscape:zoom="5.6"
     inkscape:cx="-15.486505"
     inkscape:cy="42.495467"
     inkscape:document-units="px"
     inkscape:current-layer="layer10"
     showgrid="false"
     units="mm"
     inkscape:window-width="1366"
     inkscape:window-height="744"
     inkscape:window-x="0"
     inkscape:window-y="24"
     inkscape:window-maximized="1" />
  <defs
     id="defs4" />
  <metadata
     id="metadata7">
    <rdf:RDF>
      <cc:Work
         rdf:about="">
        <dc:format>image/svg+xml</dc:format>
        <dc:type
           rdf:resource="http://purl.org/dc/dcmitype/StillImage" />
        <dc:title />
      </cc:Work>
    </rdf:RDF>
  </metadata>
  <g
     style="display:none"
     transform="translate(0,-963.77952)"
     id="layer1"
     inkscape:groupmode="layer"
     inkscape:label="n.1">
    <text
       sodipodi:linespacing="125%"
       id="text2985"
       y="1043.6445"
       x="28.178806"
       style="font-size:56px;font-style:normal;font-variant:normal;font-weight:normal;font-stretch:normal;line-height:125%;letter-spacing:0px;word-spacing:0px;fill:#000000;fill-opacity:1;stroke:none;font-family:Flynn;-inkscape-font-specification:Flynn"
       xml:space="preserve"><tspan
         style="font-size:90px;font-style:normal;font-variant:normal;font-weight:bold;font-stretch:normal;text-align:center;text-anchor:middle;font-family:Impact;-inkscape-font-specification:Impact Bold"
         y="1043.6445"
         x="28.178806"
         id="tspan2987"
         sodipodi:role="line">1</tspan></text>
  </g>
  <g
     inkscape:label="n.2"
     id="layer2"
     inkscape:groupmode="layer"
     style="display:none">
    <g
       id="text2998"
       style="font-size:56px;font-style:normal;font-variant:normal;font-weight:normal;font-stretch:normal;line-height:125%;letter-spacing:0px;word-spacing:0px;fill:#000000;fill-opacity:1;stroke:none;font-family:Flynn;-inkscape-font-specification:Flynn">
      <path
         id="path3020"
         style="font-size:90px;font-weight:bold;text-align:center;text-anchor:middle;font-family:Impact;-inkscape-font-specification:Impact Bold"
         d="m 47.031345,67.73616 0,12.128907 -39.0673824,0 0,-10.151368 C 19.536214,50.787947 26.406325,39.083857 28.574314,34.601395 c 2.197241,-4.511669 3.295872,-8.027291 3.295899,-10.546875 -2.7e-5,-1.933536 -0.33694,-3.369082 -1.010743,-4.306641 -0.644556,-0.966736 -1.640648,-1.450134 -2.988281,-1.450195 -1.347677,6.1e-5 -2.358418,0.527405 -3.032226,1.582031 -0.64455,1.054746 -0.966816,3.149471 -0.966797,6.28418 l 0,6.767578 -15.9082034,0 0,-2.592774 c -2.4e-6,-3.984321 0.2050755,-7.119084 0.6152343,-9.404297 0.4101529,-2.314391 1.4208941,-4.584897 3.0322261,-6.811523 1.611321,-2.226495 3.706045,-3.911063 6.28418,-5.0537109 2.57811,-1.1425062 5.668928,-1.7137947 9.272461,-1.7138672 7.060518,7.25e-5 12.392544,1.7578833 15.996094,5.2734371 3.632771,3.486392 5.449176,7.910216 5.449219,13.271485 -4.3e-5,4.072315 -1.025433,8.378952 -3.076172,12.919922 -2.021523,4.541052 -8.012728,14.179714 -17.973633,28.916015 l 19.467773,0"
         inkscape:connector-curvature="0" />
    </g>
  </g>
  <g
     style="display:none"
     inkscape:label="n.3"
     id="layer3"
     inkscape:groupmode="layer">
    <g
       style="font-size:56px;font-style:normal;font-variant:normal;font-weight:normal;font-stretch:normal;line-height:125%;letter-spacing:0px;word-spacing:0px;fill:#000000;fill-opacity:1;stroke:none;font-family:Flynn;-inkscape-font-specification:Flynn"
       id="text2998-2">
      <path
         inkscape:connector-curvature="0"
         d="m 39.516697,39.567215 c 2.695273,0.908242 4.702107,2.402382 6.020508,4.482422 1.318315,2.050815 1.977494,6.884794 1.977539,14.501953 -4.5e-5,5.654313 -0.644575,10.048839 -1.933594,13.183594 -1.289104,3.105473 -3.515664,5.478518 -6.679687,7.11914 -3.164096,1.611328 -7.221709,2.416991 -12.172852,2.416993 -5.625018,-2e-6 -10.048842,-0.937501 -13.271484,-2.8125 C 10.26376,76.554523 8.1543871,74.240072 7.1290016,71.515457 6.1329047,68.761562 5.6348584,64.000825 5.634861,57.233231 l 0,-5.625 17.753906,0 0,11.557617 c -2e-5,3.076185 0.175761,5.039074 0.527344,5.888672 0.380838,0.820322 1.20115,1.230478 2.460937,1.230468 1.376929,1e-5 2.285131,-0.527333 2.72461,-1.582031 0.439426,-1.054675 0.659153,-3.808579 0.65918,-8.261719 l 0,-4.921875 c -2.7e-5,-2.724582 -0.307644,-4.716767 -0.922852,-5.976562 -0.61526,-1.259734 -1.523462,-2.080046 -2.724609,-2.460938 -1.201194,-0.410123 -3.530293,-0.644497 -6.987305,-0.703125 l 0,-10.327148 c 4.21873,4.4e-5 6.826149,-0.161089 7.822266,-0.483398 0.996068,-0.322221 1.713841,-1.025346 2.15332,-2.109375 0.439426,-1.083937 0.659153,-2.783154 0.65918,-5.097657 l 0,-3.955078 c -2.7e-5,-2.490176 -0.263699,-4.1308 -0.791016,-4.921875 -0.498072,-0.790954 -1.289087,-1.186462 -2.373047,-1.186523 -1.230491,6.1e-5 -2.0801,0.424866 -2.548828,1.274414 -0.439474,0.820372 -0.6592,2.592831 -0.65918,5.317383 l 0,5.844726 -17.753906,0 0,-6.064453 c -2.6e-6,-6.796813 1.5527302,-11.381769 4.658203,-13.754883 3.105458,-2.4022722 8.041977,-3.6034429 14.80957,-3.6035154 8.466767,7.25e-5 14.208948,1.6553443 17.226563,4.9658204 3.017536,3.310611 4.526323,7.910216 4.526367,13.798828 -4.4e-5,3.984425 -0.542035,6.870164 -1.625976,8.657227 -1.084026,1.757855 -2.988321,3.369182 -5.712891,4.833984"
         style="font-size:90px;font-weight:bold;text-align:center;text-anchor:middle;font-family:Impact;-inkscape-font-specification:Impact Bold"
         id="path3089" />
    </g>
  </g>
  <g
     style="display:none"
     inkscape:label="n.4"
     id="layer4"
     inkscape:groupmode="layer">
    <g
       id="text2998-8"
       style="font-size:56px;font-style:normal;font-variant:normal;font-weight:normal;font-stretch:normal;line-height:125%;letter-spacing:0px;word-spacing:0px;fill:#000000;fill-opacity:1;stroke:none;font-family:Flynn;-inkscape-font-specification:Flynn">
      <path
         id="path3158"
         style="font-size:90px;font-weight:bold;text-align:center;text-anchor:middle;font-family:Impact;-inkscape-font-specification:Impact Bold"
         d="m 43.471775,8.7176056 0,46.4941404 5.053711,0 0,12.128906 -5.053711,0 0,12.524415 -17.753906,0 0,-12.524415 -21.0937502,0 0,-12.128906 15.3369142,-46.4941404 23.510742,0 m -17.753906,46.4941404 0,-30.27832 -7.822266,30.27832 7.822266,0"
         inkscape:connector-curvature="0" />
    </g>
  </g>
  <g
     style="display:none"
     inkscape:label="n.5"
     id="layer5"
     inkscape:groupmode="layer">
    <g
       style="font-size:56px;font-style:normal;font-variant:normal;font-weight:normal;font-stretch:normal;line-height:125%;letter-spacing:0px;word-spacing:0px;fill:#000000;fill-opacity:1;stroke:none;font-family:Flynn;-inkscape-font-specification:Flynn"
       id="text2998-5">
      <path
         inkscape:connector-curvature="0"
         d="m 44.350681,8.0364532 0,11.3818358 -22.016601,0 0,12.084961 c 2.753883,-3.251902 6.298802,-4.877877 10.634765,-4.87793 4.892543,5.3e-5 8.583946,1.377005 11.074219,4.13086 2.519487,2.724655 3.779252,7.983439 3.779297,15.776367 l 0,10.151367 c -4.5e-5,5.03908 -0.249069,8.745131 -0.74707,11.118164 -0.468794,2.343759 -1.494184,4.526374 -3.076172,6.547852 -1.582071,1.99219 -3.793983,3.530275 -6.635742,4.614258 -2.812533,1.054686 -6.254912,1.58203 -10.327149,1.582031 -4.570332,-10e-7 -8.598649,-0.791016 -12.084961,-2.373047 C 11.46493,76.561846 8.9893466,74.174154 7.5245094,71.010086 6.059662,67.846035 5.3272409,62.953462 5.3272438,56.332352 l 0,-3.867188 17.7539062,0 0,4.438477 c -2.1e-5,4.599627 0.161112,7.866225 0.483398,9.799804 0.322245,1.933605 1.435525,2.900401 3.339844,2.900391 0.878881,1e-5 1.582005,-0.27831 2.109375,-0.834961 0.556614,-0.55663 0.849582,-1.157215 0.878906,-1.801758 0.05857,-0.644518 0.11716,-3.442367 0.175782,-8.393554 l 0,-14.106446 c -2.8e-5,-2.665978 -0.278348,-4.482382 -0.834961,-5.449218 -0.556667,-0.966756 -1.479518,-1.450154 -2.768555,-1.450196 -0.820336,4.2e-5 -1.508811,0.249065 -2.06543,0.747071 -0.556662,0.498087 -0.922872,1.040078 -1.098632,1.625976 -0.146505,0.556679 -0.219748,1.875037 -0.219727,3.955078 l -17.5781249,0 0.7470703,-35.8593748 38.1005856,0"
         style="font-size:90px;font-weight:bold;text-align:center;text-anchor:middle;font-family:Impact;-inkscape-font-specification:Impact Bold"
         id="path3227" />
    </g>
  </g>
  <g
     style="display:none"
     inkscape:label="n.6"
     id="layer6"
     inkscape:groupmode="layer">
    <g
       id="text2998-58"
       style="font-size:56px;font-style:normal;font-variant:normal;font-weight:normal;font-stretch:normal;line-height:125%;letter-spacing:0px;word-spacing:0px;fill:#000000;fill-opacity:1;stroke:none;font-family:Flynn;-inkscape-font-specification:Flynn">
      <path
         id="path3296"
         style="font-size:90px;font-weight:bold;text-align:center;text-anchor:middle;font-family:Impact;-inkscape-font-specification:Impact Bold"
         d="m 47.888279,27.636063 -17.753906,0 c -2.8e-5,-3.310492 -0.04397,-5.390568 -0.131836,-6.240235 -0.05862,-0.878847 -0.410184,-1.611268 -1.054688,-2.197265 -0.61526,-0.585877 -1.464869,-0.878845 -2.548828,-0.878907 -0.908226,6.2e-5 -1.655296,0.278382 -2.241211,0.834961 -0.585959,0.556701 -0.922872,1.274474 -1.010742,2.153321 -0.08791,0.878964 -0.131857,2.651423 -0.131836,5.317382 l 0,11.337891 c 0.908181,-1.904253 2.241188,-3.32515 3.999024,-4.262695 1.757785,-0.96675 3.925752,-1.450148 6.503906,-1.450196 3.251918,4.8e-5 6.123009,0.878953 8.613281,2.636719 2.490192,1.757856 4.072222,3.867229 4.746094,6.328125 0.673782,2.460974 1.010696,5.786166 1.010742,9.975586 l 0,5.668945 c -4.6e-5,4.980487 -0.190475,8.686538 -0.571289,11.118164 -0.380904,2.431651 -1.406294,4.687508 -3.076172,6.767579 -1.640665,2.050784 -3.911171,3.647462 -6.811523,4.790039 -2.871127,1.142577 -6.225615,1.713866 -10.063477,1.713867 -4.775411,-10e-7 -8.68654,-0.659181 -11.733398,-1.977539 C 12.585534,77.953447 10.227138,76.063801 8.5572243,73.602859 6.9165945,71.112634 5.9497985,68.505215 5.6568336,65.780594 5.3931585,63.056001 5.2613227,57.767921 5.2613258,49.916336 l 0,-9.84375 c -3.1e-6,-8.466749 0.1171843,-14.12104 0.3515625,-16.962891 0.2636681,-2.871034 1.2890577,-5.580992 3.0761719,-8.129882 1.7871008,-2.548761 4.2187388,-4.453056 7.2949218,-5.712891 3.105452,-1.2889906 6.679667,-1.9335212 10.722656,-1.9335938 4.980439,7.26e-5 9.067349,0.8057359 12.260743,2.4169922 3.193319,1.6113966 5.478473,3.8819026 6.855468,6.8115236 1.376908,2.929748 2.065384,6.62115 2.06543,11.074219 M 30.134373,49.828445 c -2.8e-5,-2.519498 -0.278348,-4.248012 -0.834961,-5.185546 -0.556667,-0.937464 -1.46487,-1.406214 -2.72461,-1.40625 -1.230492,3.6e-5 -2.138694,0.454137 -2.724609,1.362304 -0.556662,0.878941 -0.834982,2.622103 -0.834961,5.229492 l 0,12.875977 c -2.1e-5,3.13478 0.263651,5.185559 0.791016,6.152344 0.556618,0.966807 1.46482,1.450205 2.724609,1.450195 0.761694,1e-5 1.552708,-0.366201 2.373047,-1.098633 0.820285,-0.761707 1.230441,-2.783189 1.230469,-6.064453 l 0,-13.31543"
         inkscape:connector-curvature="0" />
    </g>
  </g>
  <g
     style="display:none"
     inkscape:label="n.7"
     id="layer7"
     inkscape:groupmode="layer">
    <g
       style="font-size:56px;font-style:normal;font-variant:normal;font-weight:normal;font-stretch:normal;line-height:125%;letter-spacing:0px;word-spacing:0px;fill:#000000;fill-opacity:1;stroke:none;font-family:Flynn;-inkscape-font-specification:Flynn"
       id="text2998-84">
      <path
         inkscape:connector-curvature="0"
         d="m 43.537693,8.7176056 0,15.5126954 -11.337891,55.634766 -17.666015,0 12.612304,-58.359375 -17.5341792,0 0,-12.7880864 33.9257812,0"
         style="font-size:90px;font-weight:bold;text-align:center;text-anchor:middle;font-family:Impact;-inkscape-font-specification:Impact Bold"
         id="path3365" />
    </g>
  </g>
  <g
     style="display:none"
     inkscape:label="n.8"
     id="layer8"
     inkscape:groupmode="layer">
    <g
       id="text2998-6"
       style="font-size:56px;font-style:normal;font-variant:normal;font-weight:normal;font-stretch:normal;line-height:125%;letter-spacing:0px;word-spacing:0px;fill:#000000;fill-opacity:1;stroke:none;font-family:Flynn;-inkscape-font-specification:Flynn">
      <path
         id="path3434"
         style="font-size:90px;font-weight:bold;text-align:center;text-anchor:middle;font-family:Impact;-inkscape-font-specification:Impact Bold"
         d="m 39.582615,39.52327 c 2.607382,1.054726 4.614216,2.636756 6.020508,4.746093 1.406205,2.080112 2.10933,7.060576 2.109375,14.941407 -4.5e-5,5.742202 -0.556686,9.975596 -1.669922,12.700195 -1.113324,2.724615 -3.28129,4.965823 -6.503906,6.723633 -3.22269,1.728515 -7.543975,2.592772 -12.963868,2.592773 -5.273456,-1e-6 -9.448256,-0.834961 -12.524414,-2.504883 C 10.974208,77.052569 8.7622962,74.840657 7.4146461,72.086746 6.0962832,69.33285 5.4371042,64.747894 5.4371071,58.331863 5.4371042,54.025249 5.7593695,50.289901 6.403904,47.125809 7.0777275,43.961782 9.1578036,41.427605 12.644138,39.52327 10.446865,38.468624 8.791593,36.798703 7.678318,34.513504 6.5943296,32.199099 6.0523379,29.269414 6.0523415,25.724442 6.0523379,19.601455 7.751555,15.016499 11.149998,11.969559 14.548423,8.8934578 19.631426,7.3553734 26.399021,7.3553009 c 7.822234,7.25e-5 13.227502,1.6260474 16.21582,4.8779301 2.988239,3.252017 4.482378,7.895567 4.482422,13.930664 -4.4e-5,3.83794 -0.498091,6.606492 -1.49414,8.305664 -0.966839,1.699262 -2.973673,3.383831 -6.020508,5.053711 M 29.607029,24.230301 c -2.7e-5,-2.402286 -0.219753,-3.984315 -0.65918,-4.746094 -0.410182,-0.790954 -1.215845,-1.186462 -2.416992,-1.186523 -1.171898,6.1e-5 -1.962913,0.424866 -2.373047,1.274414 -0.410177,0.820372 -0.615255,2.373105 -0.615234,4.658203 l 0,5.405273 c -2.1e-5,2.13872 0.234354,3.618211 0.703125,4.438477 0.468728,0.820357 1.259742,1.230513 2.373047,1.230469 1.171849,4.4e-5 1.962864,-0.395463 2.373047,-1.186524 0.410129,-0.820266 0.615207,-2.490186 0.615234,-5.009765 l 0,-4.87793 m 0.351562,29.575195 c -2.7e-5,-2.72458 -0.278347,-4.526336 -0.83496,-5.405273 -0.556667,-0.908171 -1.435573,-1.362272 -2.636719,-1.362305 -1.171898,3.3e-5 -2.021507,0.439486 -2.548828,1.318359 -0.498068,0.84964 -0.747091,2.666045 -0.747071,5.449219 l 0,9.228516 c -2e-5,3.076185 0.2783,5.053723 0.834961,5.932617 0.585916,0.878916 1.494118,1.318369 2.72461,1.318359 1.25974,1e-5 2.109348,-0.439443 2.548828,-1.318359 0.439426,-0.908191 0.659152,-2.929674 0.659179,-6.064453 l 0,-9.09668"
         inkscape:connector-curvature="0" />
    </g>
  </g>
  <g
     style="display:none"
     inkscape:label="n.9"
     id="layer9"
     inkscape:groupmode="layer">
    <g
       style="font-size:56px;font-style:normal;font-variant:normal;font-weight:normal;font-stretch:normal;line-height:125%;letter-spacing:0px;word-spacing:0px;fill:#000000;fill-opacity:1;stroke:none;font-family:Flynn;-inkscape-font-specification:Flynn"
       id="text2998-3">
      <path
         inkscape:connector-curvature="0"
         d="m 5.2613258,60.946609 17.7539062,0 c -2.1e-5,3.310563 0.04392,5.405287 0.131836,6.28418 0.08787,0.849621 0.439432,1.567394 1.054688,2.15332 0.644508,0.585948 1.508765,0.878916 2.592773,0.878907 0.908177,9e-6 1.655247,-0.278311 2.241211,-0.834961 0.58591,-0.55663 0.908175,-1.274403 0.966797,-2.153321 0.08786,-0.878892 0.131808,-2.651351 0.131836,-5.317382 l 0,-11.337891 c -0.878934,1.904324 -2.197292,3.33987 -3.955078,4.306641 -1.757835,0.937524 -3.94045,1.406273 -6.547852,1.40625 -3.251967,2.3e-5 -6.123058,-0.878882 -8.613281,-2.636719 C 8.527921,51.937848 6.9458913,49.828475 6.272068,47.367508 5.5982364,44.906605 5.2613227,41.581413 5.2613258,37.391922 l 0,-5.668945 C 5.2613227,26.742561 5.4517522,23.03651 5.8326149,20.604813 6.242767,18.173234 7.2681566,15.932025 8.9087868,13.88118 10.549403,11.80117 12.819909,10.189843 15.72031,9.0471954 18.620684,7.9046892 21.989822,7.3334008 25.827732,7.3333282 c 4.746065,7.26e-5 8.642546,0.6592516 11.689453,1.9775391 3.046837,1.3184287 5.405233,3.2227237 7.075196,5.7128907 1.669877,2.461 2.636673,5.053771 2.90039,7.77832 0.263626,2.724664 0.395462,7.998096 0.395508,15.820313 l 0,9.887695 c -4.6e-5,8.46682 -0.117233,14.135759 -0.351563,17.006836 -0.23442,2.841808 -1.259809,5.537118 -3.076171,8.085937 -1.78715,2.548832 -4.218789,4.467776 -7.294922,5.756836 -3.076204,1.259765 -6.635771,1.889647 -10.678711,1.889649 -5.009785,-2e-6 -9.111344,-0.805665 -12.304688,-2.416992 C 11.018153,77.221026 8.7329989,74.950521 7.3267555,72.020828 5.9497985,69.091151 5.2613227,65.399749 5.2613258,60.946609 M 23.015232,38.754227 c -2.1e-5,2.988319 0.380838,4.83402 1.142578,5.537109 0.790993,0.70316 1.596656,1.054722 2.416992,1.054688 1.230443,3.4e-5 2.123997,-0.439419 2.680664,-1.31836 0.58591,-0.908166 0.878879,-2.665977 0.878907,-5.273437 l 0,-12.875977 c -2.8e-5,-3.134708 -0.278348,-5.185488 -0.834961,-6.152344 -0.527371,-0.966735 -1.420924,-1.450133 -2.680664,-1.450195 -0.761743,6.2e-5 -1.552758,0.380921 -2.373047,1.142578 -0.820334,0.732482 -1.23049,2.739316 -1.230469,6.020508 l 0,13.31543"
         style="font-size:90px;font-weight:bold;text-align:center;text-anchor:middle;font-family:Impact;-inkscape-font-specification:Impact Bold"
         id="path3503" />
    </g>
  </g>
  <g
     style="display:inline"
     inkscape:label="n.0"
     id="layer10"
     inkscape:groupmode="layer">
    <g
       id="text2998-33"
       style="font-size:56px;font-style:normal;font-variant:normal;font-weight:normal;font-stretch:normal;line-height:125%;letter-spacing:0px;word-spacing:0px;fill:#000000;fill-opacity:1;stroke:none;font-family:Flynn;-inkscape-font-specification:Flynn">
      <path
         id="path3572"
         style="font-size:90px;font-weight:bold;text-align:center;text-anchor:middle;font-family:Impact;-inkscape-font-specification:Impact Bold"
         d="m 47.514744,32.799637 0,23.730469 c -4.5e-5,5.390643 -0.293014,9.31642 -0.878906,11.777343 -0.585982,2.460947 -1.801801,4.760749 -3.647461,6.899414 -1.845742,2.138675 -4.072302,3.676759 -6.679688,4.614258 -2.607453,0.937499 -5.522489,1.406249 -8.745117,1.40625 -4.248068,-1e-6 -7.778338,-0.483399 -10.59082,-1.450195 C 14.16024,78.781083 11.919031,77.242999 10.249119,75.162918 8.5791908,73.082847 7.3926686,70.900232 6.6895485,68.615067 5.98642,66.300627 5.6348578,62.638521 5.634861,57.628738 l 0,-24.829101 c -3.2e-6,-6.53315 0.5566369,-11.425723 1.6699219,-14.677735 1.1425721,-3.251888 3.3837811,-5.859307 6.7236331,-7.822265 3.369125,-1.9628193 7.441387,-2.9442636 12.216797,-2.9443361 3.896456,7.25e-5 7.382781,0.6885484 10.458984,2.0654297 3.076134,1.3477254 5.375937,3.0029974 6.899414,4.9658204 1.523395,1.962954 2.548784,4.174866 3.076172,6.635742 0.556596,2.460994 0.834916,6.386771 0.834961,11.777344 M 29.760838,26.823074 c -2.8e-5,-3.77924 -0.190457,-6.137636 -0.57129,-7.075195 -0.351588,-0.966736 -1.201197,-1.450134 -2.548828,-1.450195 -1.318382,6.1e-5 -2.197287,0.512756 -2.636718,1.538086 -0.410178,0.996152 -0.615256,3.325252 -0.615235,6.987304 l 0,34.716797 c -2.1e-5,4.130874 0.190409,6.621106 0.571289,7.470703 0.410135,0.84962 1.274392,1.274424 2.592774,1.274414 1.318334,1e-5 2.182591,-0.498036 2.592773,-1.49414 0.410129,-0.996082 0.615207,-3.237291 0.615235,-6.723633 l 0,-35.244141" />
    </g>
  </g>
</svg>
