solid OpenSCAD_Model
  facet normal -1 0 0
    outer loop
      vertex 0 0 0
      vertex 0 0 2
      vertex 0 40 0
    endloop
  endfacet
  facet normal -1 0 0
    outer loop
      vertex 0 40 0
      vertex 0 0 2
      vertex 0 4 2
    endloop
  endfacet
  facet normal -1 0 0
    outer loop
      vertex 0 40 0
      vertex 0 4 2
      vertex 0 4 5
    endloop
  endfacet
  facet normal -1 0 0
    outer loop
      vertex 0 36 2
      vertex 0 4 5
      vertex 0 36 5
    endloop
  endfacet
  facet normal -1 0 0
    outer loop
      vertex 0 40 0
      vertex 0 4 5
      vertex 0 36 2
    endloop
  endfacet
  facet normal -1 0 0
    outer loop
      vertex 0 40 2
      vertex 0 40 0
      vertex 0 36 2
    endloop
  endfacet
  facet normal 0 -1 0
    outer loop
      vertex 0 0 2
      vertex 0 0 0
      vertex 20 0 0
    endloop
  endfacet
  facet normal 0 -1 0
    outer loop
      vertex 20 0 2
      vertex 0 0 2
      vertex 20 0 0
    endloop
  endfacet
  facet normal 0 0 -1
    outer loop
      vertex 0 0 0
      vertex 0 40 0
      vertex 20 0 0
    endloop
  endfacet
  facet normal 0 0 -1
    outer loop
      vertex 20 0 0
      vertex 0 40 0
      vertex 20 40 0
    endloop
  endfacet
  facet normal 0 1 0
    outer loop
      vertex 0 40 0
      vertex 0 40 2
      vertex 20 40 0
    endloop
  endfacet
  facet normal 0 1 0
    outer loop
      vertex 20 40 0
      vertex 0 40 2
      vertex 20 40 2
    endloop
  endfacet
  facet normal 0 0 1
    outer loop
      vertex 0 40 2
      vertex 0 36 2
      vertex 20 36 2
    endloop
  endfacet
  facet normal 0 0 1
    outer loop
      vertex 20 40 2
      vertex 0 40 2
      vertex 20 36 2
    endloop
  endfacet
  facet normal 0 1 0
    outer loop
      vertex 0 36 2
      vertex 0 36 5
      vertex 20 36 2
    endloop
  endfacet
  facet normal 0 1 0
    outer loop
      vertex 20 36 2
      vertex 0 36 5
      vertex 20 36 5
    endloop
  endfacet
  facet normal 0 0 1
    outer loop
      vertex 11.9502 9.73388 5
      vertex 0 4 5
      vertex 20 4 5
    endloop
  endfacet
  facet normal 0 0 1
    outer loop
      vertex 0 36 5
      vertex 0 4 5
      vertex 4.09027 16.3475 5
    endloop
  endfacet
  facet normal 0 0 1
    outer loop
      vertex 9.8699 19.2123 5
      vertex 9.12257 19.3489 5
      vertex 10.8992 16.8312 5
    endloop
  endfacet
  facet normal 0 0 1
    outer loop
      vertex 0 36 5
      vertex 4.09027 16.3475 5
      vertex 4.09027 17.935 5
    endloop
  endfacet
  facet normal 0 0 1
    outer loop
      vertex 7.89773 19.411 5
      vertex 4.09027 17.935 5
      vertex 9.10084 17.935 5
    endloop
  endfacet
  facet normal 0 0 1
    outer loop
      vertex 12.7618 9.94724 5
      vertex 11.9502 9.73388 5
      vertex 20 4 5
    endloop
  endfacet
  facet normal 0 0 1
    outer loop
      vertex 9.94412 12.6639 5
      vertex 10.2108 12.6919 5
      vertex 9.13809 13.6065 5
    endloop
  endfacet
  facet normal 0 0 1
    outer loop
      vertex 9.24957 13.0113 5
      vertex 9.35343 12.8592 5
      vertex 9.50385 12.7508 5
    endloop
  endfacet
  facet normal 0 0 1
    outer loop
      vertex 10.5952 12.9151 5
      vertex 10.7132 13.1104 5
      vertex 9.10084 14.6731 5
    endloop
  endfacet
  facet normal 0 0 1
    outer loop
      vertex 9.50385 12.7508 5
      vertex 9.70084 12.6856 5
      vertex 9.24957 13.0113 5
    endloop
  endfacet
  facet normal 0 0 1
    outer loop
      vertex 9.10084 14.6731 5
      vertex 9.13809 13.6065 5
      vertex 10.2108 12.6919 5
    endloop
  endfacet
  facet normal 0 0 1
    outer loop
      vertex 9.10084 14.6731 5
      vertex 10.2108 12.6919 5
      vertex 10.4278 12.7757 5
    endloop
  endfacet
  facet normal 0 0 1
    outer loop
      vertex 9.10084 14.6731 5
      vertex 10.4278 12.7757 5
      vertex 10.5952 12.9151 5
    endloop
  endfacet
  facet normal 0 0 1
    outer loop
      vertex 9.10084 17.935 5
      vertex 9.10084 14.6731 5
      vertex 10.7132 13.1104 5
    endloop
  endfacet
  facet normal 0 0 1
    outer loop
      vertex 9.10084 17.935 5
      vertex 10.7132 13.1104 5
      vertex 10.7945 13.4237 5
    endloop
  endfacet
  facet normal 0 0 1
    outer loop
      vertex 9.10084 17.935 5
      vertex 10.7945 13.4237 5
      vertex 10.8526 13.9167 5
    endloop
  endfacet
  facet normal 0 0 1
    outer loop
      vertex 10.493 18.7613 5
      vertex 10.3164 18.9583 5
      vertex 10.6387 18.5181 5
    endloop
  endfacet
  facet normal 0 0 1
    outer loop
      vertex 9.10084 17.935 5
      vertex 10.8526 13.9167 5
      vertex 10.8992 15.4421 5
    endloop
  endfacet
  facet normal 0 0 1
    outer loop
      vertex 14.62 11.095 5
      vertex 14.099 10.6316 5
      vertex 20 4 5
    endloop
  endfacet
  facet normal 0 0 1
    outer loop
      vertex 9.12257 19.3489 5
      vertex 9.10084 17.935 5
      vertex 10.8992 16.8312 5
    endloop
  endfacet
  facet normal 0 0 1
    outer loop
      vertex 9.8699 19.2123 5
      vertex 10.8992 16.8312 5
      vertex 10.834 17.8297 5
    endloop
  endfacet
  facet normal 0 0 1
    outer loop
      vertex 14.099 10.6316 5
      vertex 13.479 10.2456 5
      vertex 20 4 5
    endloop
  endfacet
  facet normal 0 0 1
    outer loop
      vertex 10.1087 19.1085 5
      vertex 10.834 17.8297 5
      vertex 10.7527 18.2124 5
    endloop
  endfacet
  facet normal 0 0 1
    outer loop
      vertex 10.3164 18.9583 5
      vertex 10.7527 18.2124 5
      vertex 10.6387 18.5181 5
    endloop
  endfacet
  facet normal 0 0 1
    outer loop
      vertex 10.6054 22.8479 5
      vertex 10.7132 23.0573 5
      vertex 10.4682 22.6789 5
    endloop
  endfacet
  facet normal 0 0 1
    outer loop
      vertex 10.1087 19.1085 5
      vertex 9.8699 19.2123 5
      vertex 10.834 17.8297 5
    endloop
  endfacet
  facet normal 0 0 1
    outer loop
      vertex 13.479 10.2456 5
      vertex 12.7618 9.94724 5
      vertex 20 4 5
    endloop
  endfacet
  facet normal 0 0 1
    outer loop
      vertex 6.60882 30.0392 5
      vertex 7.10722 30.1823 5
      vertex 0 36 5
    endloop
  endfacet
  facet normal 0 0 1
    outer loop
      vertex 4.09027 23.8261 5
      vertex 4.09027 17.935 5
      vertex 7.89773 19.411 5
    endloop
  endfacet
  facet normal 0 0 1
    outer loop
      vertex 4.82969 28.8003 5
      vertex 5.09667 29.1392 5
      vertex 0 36 5
    endloop
  endfacet
  facet normal 0 0 1
    outer loop
      vertex 9.12257 19.3489 5
      vertex 7.89773 19.411 5
      vertex 9.10084 17.935 5
    endloop
  endfacet
  facet normal 0 0 1
    outer loop
      vertex 15.0416 11.6361 5
      vertex 14.62 11.095 5
      vertex 20 4 5
    endloop
  endfacet
  facet normal 0 0 1
    outer loop
      vertex 10.8526 23.6463 5
      vertex 9.3427 22.3597 5
      vertex 10.1056 22.4618 5
    endloop
  endfacet
  facet normal 0 0 1
    outer loop
      vertex 10.8526 23.6463 5
      vertex 10.8992 24.4958 5
      vertex 9.3427 22.3597 5
    endloop
  endfacet
  facet normal 0 0 1
    outer loop
      vertex 15.3639 12.2547 5
      vertex 15.0416 11.6361 5
      vertex 20 4 5
    endloop
  endfacet
  facet normal 0 0 1
    outer loop
      vertex 10.7132 23.0573 5
      vertex 10.3014 22.5502 5
      vertex 10.4682 22.6789 5
    endloop
  endfacet
  facet normal 0 0 1
    outer loop
      vertex 10.7132 23.0573 5
      vertex 10.8526 23.6463 5
      vertex 10.1056 22.4618 5
    endloop
  endfacet
  facet normal 0 0 1
    outer loop
      vertex 14.7456 28.6676 5
      vertex 15.0052 28.2663 5
      vertex 20 36 5
    endloop
  endfacet
  facet normal 0 0 1
    outer loop
      vertex 9.14741 26.4276 5
      vertex 9.10084 25.4757 5
      vertex 10.8992 24.4958 5
    endloop
  endfacet
  facet normal 0 0 1
    outer loop
      vertex 15.6439 26.319 5
      vertex 15.7237 25.1407 5
      vertex 20 4 5
    endloop
  endfacet
  facet normal 0 0 1
    outer loop
      vertex 10.403 27.2523 5
      vertex 10.2201 27.3149 5
      vertex 10.6759 27.0011 5
    endloop
  endfacet
  facet normal 0 0 1
    outer loop
      vertex 4.17239 26.8591 5
      vertex 4.27512 27.4323 5
      vertex 0 36 5
    endloop
  endfacet
  facet normal 0 0 1
    outer loop
      vertex 9.4062 27.1337 5
      vertex 9.28682 26.9763 5
      vertex 10.8992 25.612 5
    endloop
  endfacet
  facet normal 0 0 1
    outer loop
      vertex 10.0062 27.3361 5
      vertex 9.76604 27.3135 5
      vertex 10.8433 26.4863 5
    endloop
  endfacet
  facet normal 0 0 1
    outer loop
      vertex 13.6632 29.6483 5
      vertex 14.0908 29.3636 5
      vertex 20 36 5
    endloop
  endfacet
  facet normal 0 0 1
    outer loop
      vertex 10.2201 27.3149 5
      vertex 10.0062 27.3361 5
      vertex 10.7736 26.7889 5
    endloop
  endfacet
  facet normal 0 0 1
    outer loop
      vertex 10.5551 27.1476 5
      vertex 10.403 27.2523 5
      vertex 10.6759 27.0011 5
    endloop
  endfacet
  facet normal 0 0 1
    outer loop
      vertex 10.6759 27.0011 5
      vertex 10.2201 27.3149 5
      vertex 10.7736 26.7889 5
    endloop
  endfacet
  facet normal 0 0 1
    outer loop
      vertex 13.1637 29.8891 5
      vertex 13.6632 29.6483 5
      vertex 20 36 5
    endloop
  endfacet
  facet normal 0 0 1
    outer loop
      vertex 10.7736 26.7889 5
      vertex 10.0062 27.3361 5
      vertex 10.8433 26.4863 5
    endloop
  endfacet
  facet normal 0 0 1
    outer loop
      vertex 15.6027 12.9848 5
      vertex 15.3639 12.2547 5
      vertex 20 4 5
    endloop
  endfacet
  facet normal 0 0 1
    outer loop
      vertex 10.8433 26.4863 5
      vertex 9.76604 27.3135 5
      vertex 10.8992 25.612 5
    endloop
  endfacet
  facet normal 0 0 1
    outer loop
      vertex 9.76604 27.3135 5
      vertex 9.56594 27.2461 5
      vertex 10.8992 25.612 5
    endloop
  endfacet
  facet normal 0 0 1
    outer loop
      vertex 9.56594 27.2461 5
      vertex 9.4062 27.1337 5
      vertex 10.8992 25.612 5
    endloop
  endfacet
  facet normal 0 0 1
    outer loop
      vertex 10.8992 25.612 5
      vertex 9.28682 26.9763 5
      vertex 10.8992 24.4958 5
    endloop
  endfacet
  facet normal 0 0 1
    outer loop
      vertex 9.28682 26.9763 5
      vertex 9.20554 26.7522 5
      vertex 10.8992 24.4958 5
    endloop
  endfacet
  facet normal 0 0 1
    outer loop
      vertex 9.20554 26.7522 5
      vertex 9.14741 26.4276 5
      vertex 10.8992 24.4958 5
    endloop
  endfacet
  facet normal 0 0 1
    outer loop
      vertex 10.8992 24.4958 5
      vertex 9.10084 25.4757 5
      vertex 9.3427 22.3597 5
    endloop
  endfacet
  facet normal 0 0 1
    outer loop
      vertex 9.10084 25.4757 5
      vertex 9.10084 23.8261 5
      vertex 9.3427 22.3597 5
    endloop
  endfacet
  facet normal 0 0 1
    outer loop
      vertex 0 36 5
      vertex 4.09027 17.935 5
      vertex 4.09027 23.8261 5
    endloop
  endfacet
  facet normal 0 0 1
    outer loop
      vertex 5.09667 29.1392 5
      vertex 5.40486 29.4194 5
      vertex 0 36 5
    endloop
  endfacet
  facet normal 0 0 1
    outer loop
      vertex 0 36 5
      vertex 4.09027 23.8261 5
      vertex 4.09027 25.5378 5
    endloop
  endfacet
  facet normal 0 0 1
    outer loop
      vertex 5.75792 29.6579 5
      vertex 6.15924 29.8645 5
      vertex 0 36 5
    endloop
  endfacet
  facet normal 0 0 1
    outer loop
      vertex 0 36 5
      vertex 4.09027 25.5378 5
      vertex 4.11087 26.2278 5
    endloop
  endfacet
  facet normal 0 0 1
    outer loop
      vertex 6.15924 29.8645 5
      vertex 6.60882 30.0392 5
      vertex 0 36 5
    endloop
  endfacet
  facet normal 0 0 1
    outer loop
      vertex 0 36 5
      vertex 4.11087 26.2278 5
      vertex 4.17239 26.8591 5
    endloop
  endfacet
  facet normal 0 0 1
    outer loop
      vertex 4.27512 27.4323 5
      vertex 4.41906 27.9468 5
      vertex 0 36 5
    endloop
  endfacet
  facet normal 0 0 1
    outer loop
      vertex 10.3164 18.9583 5
      vertex 10.1087 19.1085 5
      vertex 10.7527 18.2124 5
    endloop
  endfacet
  facet normal 0 0 1
    outer loop
      vertex 4.41906 27.9468 5
      vertex 4.60391 28.4029 5
      vertex 0 36 5
    endloop
  endfacet
  facet normal 0 0 1
    outer loop
      vertex 5.40486 29.4194 5
      vertex 5.75792 29.6579 5
      vertex 0 36 5
    endloop
  endfacet
  facet normal 0 0 1
    outer loop
      vertex 20 36 5
      vertex 0 36 5
      vertex 7.10722 30.1823 5
    endloop
  endfacet
  facet normal 0 0 1
    outer loop
      vertex 20 36 5
      vertex 7.10722 30.1823 5
      vertex 8.24881 30.3731 5
    endloop
  endfacet
  facet normal 0 0 1
    outer loop
      vertex 20 36 5
      vertex 8.24881 30.3731 5
      vertex 9.58457 30.4366 5
    endloop
  endfacet
  facet normal 0 0 1
    outer loop
      vertex 20 36 5
      vertex 9.58457 30.4366 5
      vertex 10.4445 30.4146 5
    endloop
  endfacet
  facet normal 0 0 1
    outer loop
      vertex 20 36 5
      vertex 10.4445 30.4146 5
      vertex 11.2325 30.3491 5
    endloop
  endfacet
  facet normal 0 0 1
    outer loop
      vertex 20 36 5
      vertex 11.2325 30.3491 5
      vertex 11.9485 30.2396 5
    endloop
  endfacet
  facet normal 0 0 1
    outer loop
      vertex 20 36 5
      vertex 11.9485 30.2396 5
      vertex 12.5922 30.0861 5
    endloop
  endfacet
  facet normal 0 0 1
    outer loop
      vertex 14.4461 29.0351 5
      vertex 14.7456 28.6676 5
      vertex 20 36 5
    endloop
  endfacet
  facet normal 0 0 1
    outer loop
      vertex 20 36 5
      vertex 12.5922 30.0861 5
      vertex 13.1637 29.8891 5
    endloop
  endfacet
  facet normal 0 0 1
    outer loop
      vertex 14.0908 29.3636 5
      vertex 14.4461 29.0351 5
      vertex 20 36 5
    endloop
  endfacet
  facet normal 0 0 1
    outer loop
      vertex 10.7132 23.0573 5
      vertex 10.1056 22.4618 5
      vertex 10.3014 22.5502 5
    endloop
  endfacet
  facet normal 0 0 1
    outer loop
      vertex 14.1865 21.11 5
      vertex 14.6476 20.8247 5
      vertex 14.1859 21.651 5
    endloop
  endfacet
  facet normal 0 0 1
    outer loop
      vertex 15.7237 25.1407 5
      vertex 15.695 24.3555 5
      vertex 20 4 5
    endloop
  endfacet
  facet normal 0 0 1
    outer loop
      vertex 20 36 5
      vertex 15.0052 28.2663 5
      vertex 15.2248 27.8305 5
    endloop
  endfacet
  facet normal 0 0 1
    outer loop
      vertex 15.0363 20.4775 5
      vertex 15.3515 20.0683 5
      vertex 14.6324 21.9843 5
    endloop
  endfacet
  facet normal 0 0 1
    outer loop
      vertex 20 36 5
      vertex 15.2248 27.8305 5
      vertex 15.4043 27.3606 5
    endloop
  endfacet
  facet normal 0 0 1
    outer loop
      vertex 20 36 5
      vertex 15.544 26.8569 5
      vertex 20 4 5
    endloop
  endfacet
  facet normal 0 0 1
    outer loop
      vertex 20 36 5
      vertex 15.4043 27.3606 5
      vertex 15.544 26.8569 5
    endloop
  endfacet
  facet normal 0 0 1
    outer loop
      vertex 15.544 26.8569 5
      vertex 15.6439 26.319 5
      vertex 20 4 5
    endloop
  endfacet
  facet normal 0 0 1
    outer loop
      vertex 15.9097 15.9755 5
      vertex 15.8756 14.8452 5
      vertex 20 4 5
    endloop
  endfacet
  facet normal 0 0 1
    outer loop
      vertex 15.695 24.3555 5
      vertex 15.6089 23.6867 5
      vertex 20 4 5
    endloop
  endfacet
  facet normal 0 0 1
    outer loop
      vertex 15.6089 23.6867 5
      vertex 15.4655 23.1338 5
      vertex 20 4 5
    endloop
  endfacet
  facet normal 0 0 1
    outer loop
      vertex 15.4655 23.1338 5
      vertex 15.2649 22.6975 5
      vertex 20 4 5
    endloop
  endfacet
  facet normal 0 0 1
    outer loop
      vertex 15.2649 22.6975 5
      vertex 14.9919 22.3331 5
      vertex 20 4 5
    endloop
  endfacet
  facet normal 0 0 1
    outer loop
      vertex 14.1859 21.651 5
      vertex 13.6525 21.3332 5
      vertex 14.1865 21.11 5
    endloop
  endfacet
  facet normal 0 0 1
    outer loop
      vertex 14.6324 21.9843 5
      vertex 14.1859 21.651 5
      vertex 14.6476 20.8247 5
    endloop
  endfacet
  facet normal 0 0 1
    outer loop
      vertex 15.5959 19.4869 5
      vertex 15.7703 18.6109 5
      vertex 20 4 5
    endloop
  endfacet
  facet normal 0 0 1
    outer loop
      vertex 14.6324 21.9843 5
      vertex 14.6476 20.8247 5
      vertex 15.0363 20.4775 5
    endloop
  endfacet
  facet normal 0 0 1
    outer loop
      vertex 15.7703 18.6109 5
      vertex 15.8747 17.4405 5
      vertex 20 4 5
    endloop
  endfacet
  facet normal 0 0 1
    outer loop
      vertex 14.9919 22.3331 5
      vertex 14.6324 21.9843 5
      vertex 15.3515 20.0683 5
    endloop
  endfacet
  facet normal 0 0 1
    outer loop
      vertex 15.8747 17.4405 5
      vertex 15.9097 15.9755 5
      vertex 20 4 5
    endloop
  endfacet
  facet normal 0 0 1
    outer loop
      vertex 14.9919 22.3331 5
      vertex 15.3515 20.0683 5
      vertex 15.4824 19.8143 5
    endloop
  endfacet
  facet normal 0 0 1
    outer loop
      vertex 14.9919 22.3331 5
      vertex 15.5959 19.4869 5
      vertex 20 4 5
    endloop
  endfacet
  facet normal 0 0 1
    outer loop
      vertex 14.9919 22.3331 5
      vertex 15.4824 19.8143 5
      vertex 15.5959 19.4869 5
    endloop
  endfacet
  facet normal 0 0 1
    outer loop
      vertex 15.8756 14.8452 5
      vertex 15.7734 13.8484 5
      vertex 20 4 5
    endloop
  endfacet
  facet normal 0 0 1
    outer loop
      vertex 15.7734 13.8484 5
      vertex 15.6027 12.9848 5
      vertex 20 4 5
    endloop
  endfacet
  facet normal 0 0 1
    outer loop
      vertex 10.8992 15.4421 5
      vertex 10.8992 16.8312 5
      vertex 9.10084 17.935 5
    endloop
  endfacet
  facet normal 0 0 1
    outer loop
      vertex 11.0442 9.60604 5
      vertex 0 4 5
      vertex 11.9502 9.73388 5
    endloop
  endfacet
  facet normal 0 0 1
    outer loop
      vertex 10.0435 9.56342 5
      vertex 0 4 5
      vertex 11.0442 9.60604 5
    endloop
  endfacet
  facet normal 0 0 1
    outer loop
      vertex 8.91627 9.61309 5
      vertex 0 4 5
      vertex 10.0435 9.56342 5
    endloop
  endfacet
  facet normal 0 0 1
    outer loop
      vertex 7.91635 9.76182 5
      vertex 0 4 5
      vertex 8.91627 9.61309 5
    endloop
  endfacet
  facet normal 0 0 1
    outer loop
      vertex 7.04372 10.0099 5
      vertex 0 4 5
      vertex 7.91635 9.76182 5
    endloop
  endfacet
  facet normal 0 0 1
    outer loop
      vertex 6.29781 10.3573 5
      vertex 0 4 5
      vertex 7.04372 10.0099 5
    endloop
  endfacet
  facet normal 0 0 1
    outer loop
      vertex 5.67946 10.7821 5
      vertex 0 4 5
      vertex 6.29781 10.3573 5
    endloop
  endfacet
  facet normal 0 0 1
    outer loop
      vertex 5.17541 11.2503 5
      vertex 0 4 5
      vertex 5.67946 10.7821 5
    endloop
  endfacet
  facet normal 0 0 1
    outer loop
      vertex 4.78623 11.7617 5
      vertex 0 4 5
      vertex 5.17541 11.2503 5
    endloop
  endfacet
  facet normal 0 0 1
    outer loop
      vertex 4.51191 12.3168 5
      vertex 0 4 5
      vertex 4.78623 11.7617 5
    endloop
  endfacet
  facet normal 0 0 1
    outer loop
      vertex 4.32762 13.006 5
      vertex 0 4 5
      vertex 4.51191 12.3168 5
    endloop
  endfacet
  facet normal 0 0 1
    outer loop
      vertex 4.19582 13.9074 5
      vertex 0 4 5
      vertex 4.32762 13.006 5
    endloop
  endfacet
  facet normal 0 0 1
    outer loop
      vertex 4.11651 15.0213 5
      vertex 0 4 5
      vertex 4.19582 13.9074 5
    endloop
  endfacet
  facet normal 0 0 1
    outer loop
      vertex 4.09027 16.3475 5
      vertex 0 4 5
      vertex 4.11651 15.0213 5
    endloop
  endfacet
  facet normal 0 0 1
    outer loop
      vertex 9.13809 13.6065 5
      vertex 9.70084 12.6856 5
      vertex 9.94412 12.6639 5
    endloop
  endfacet
  facet normal 0 0 1
    outer loop
      vertex 9.13809 13.6065 5
      vertex 9.24957 13.0113 5
      vertex 9.70084 12.6856 5
    endloop
  endfacet
  facet normal 0 0 1
    outer loop
      vertex 4.60391 28.4029 5
      vertex 4.82969 28.8003 5
      vertex 0 36 5
    endloop
  endfacet
  facet normal 0 0 1
    outer loop
      vertex 9.10084 23.8261 5
      vertex 7.89773 22.3255 5
      vertex 9.3427 22.3597 5
    endloop
  endfacet
  facet normal 0 0 1
    outer loop
      vertex 7.89773 22.3255 5
      vertex 4.09027 23.8261 5
      vertex 7.89773 19.411 5
    endloop
  endfacet
  facet normal 0 0 1
    outer loop
      vertex 9.10084 23.8261 5
      vertex 4.09027 23.8261 5
      vertex 7.89773 22.3255 5
    endloop
  endfacet
  facet normal 0 -1 0
    outer loop
      vertex 0 4 5
      vertex 0 4 2
      vertex 20 4 2
    endloop
  endfacet
  facet normal 0 -1 0
    outer loop
      vertex 20 4 5
      vertex 0 4 5
      vertex 20 4 2
    endloop
  endfacet
  facet normal 0 0 1
    outer loop
      vertex 0 4 2
      vertex 0 0 2
      vertex 20 0 2
    endloop
  endfacet
  facet normal 0 0 1
    outer loop
      vertex 20 4 2
      vertex 0 4 2
      vertex 20 0 2
    endloop
  endfacet
  facet normal 1 0 0
    outer loop
      vertex 20 0 2
      vertex 20 0 0
      vertex 20 40 0
    endloop
  endfacet
  facet normal 1 0 0
    outer loop
      vertex 20 4 2
      vertex 20 0 2
      vertex 20 40 0
    endloop
  endfacet
  facet normal 1 0 0
    outer loop
      vertex 20 36 2
      vertex 20 4 2
      vertex 20 40 0
    endloop
  endfacet
  facet normal 1 0 0
    outer loop
      vertex 20 40 2
      vertex 20 36 2
      vertex 20 40 0
    endloop
  endfacet
  facet normal 1 0 0
    outer loop
      vertex 20 36 5
      vertex 20 4 2
      vertex 20 36 2
    endloop
  endfacet
  facet normal 1 0 0
    outer loop
      vertex 20 4 5
      vertex 20 4 2
      vertex 20 36 5
    endloop
  endfacet
  facet normal 0.999804 0.0197876 0
    outer loop
      vertex 4.11651 15.0213 2
      vertex 4.09027 16.3475 2
      vertex 4.09027 16.3475 5
    endloop
  endfacet
  facet normal 0.999804 0.0197876 0
    outer loop
      vertex 4.11651 15.0213 5
      vertex 4.11651 15.0213 2
      vertex 4.09027 16.3475 5
    endloop
  endfacet
  facet normal 1 0 0
    outer loop
      vertex 4.09027 16.3475 5
      vertex 4.09027 16.3475 2
      vertex 4.09027 17.935 2
    endloop
  endfacet
  facet normal 1 0 0
    outer loop
      vertex 4.09027 17.935 5
      vertex 4.09027 16.3475 5
      vertex 4.09027 17.935 2
    endloop
  endfacet
  facet normal 0.997475 0.0710136 0
    outer loop
      vertex 4.19582 13.9074 2
      vertex 4.11651 15.0213 2
      vertex 4.11651 15.0213 5
    endloop
  endfacet
  facet normal 0.997475 0.0710136 0
    outer loop
      vertex 4.19582 13.9074 5
      vertex 4.19582 13.9074 2
      vertex 4.11651 15.0213 5
    endloop
  endfacet
  facet normal 0.989479 0.144673 0
    outer loop
      vertex 4.32762 13.006 2
      vertex 4.19582 13.9074 2
      vertex 4.19582 13.9074 5
    endloop
  endfacet
  facet normal 0.989479 0.144673 0
    outer loop
      vertex 4.32762 13.006 5
      vertex 4.32762 13.006 2
      vertex 4.19582 13.9074 5
    endloop
  endfacet
  facet normal 0.966057 0.258327 0
    outer loop
      vertex 4.51191 12.3168 2
      vertex 4.32762 13.006 2
      vertex 4.32762 13.006 5
    endloop
  endfacet
  facet normal 0.966057 0.258327 0
    outer loop
      vertex 4.51191 12.3168 5
      vertex 4.51191 12.3168 2
      vertex 4.32762 13.006 5
    endloop
  endfacet
  facet normal 0.896514 0.443016 0
    outer loop
      vertex 4.78623 11.7617 2
      vertex 4.51191 12.3168 2
      vertex 4.51191 12.3168 5
    endloop
  endfacet
  facet normal 0.896514 0.443016 0
    outer loop
      vertex 4.78623 11.7617 5
      vertex 4.78623 11.7617 2
      vertex 4.51191 12.3168 5
    endloop
  endfacet
  facet normal 0.795764 0.605606 0
    outer loop
      vertex 5.17541 11.2503 2
      vertex 4.78623 11.7617 2
      vertex 4.78623 11.7617 5
    endloop
  endfacet
  facet normal 0.795764 0.605606 0
    outer loop
      vertex 5.17541 11.2503 5
      vertex 5.17541 11.2503 2
      vertex 4.78623 11.7617 5
    endloop
  endfacet
  facet normal 0.680577 0.732677 0
    outer loop
      vertex 5.17541 11.2503 2
      vertex 5.17541 11.2503 5
      vertex 5.67946 10.7821 2
    endloop
  endfacet
  facet normal 0.680577 0.732677 0
    outer loop
      vertex 5.67946 10.7821 2
      vertex 5.17541 11.2503 5
      vertex 5.67946 10.7821 5
    endloop
  endfacet
  facet normal 0.566193 0.824272 0
    outer loop
      vertex 5.67946 10.7821 2
      vertex 5.67946 10.7821 5
      vertex 6.29781 10.3573 2
    endloop
  endfacet
  facet normal 0.566193 0.824272 0
    outer loop
      vertex 6.29781 10.3573 2
      vertex 5.67946 10.7821 5
      vertex 6.29781 10.3573 5
    endloop
  endfacet
  facet normal 0.422209 0.906498 0
    outer loop
      vertex 6.29781 10.3573 2
      vertex 6.29781 10.3573 5
      vertex 7.04372 10.0099 2
    endloop
  endfacet
  facet normal 0.422209 0.906498 0
    outer loop
      vertex 7.04372 10.0099 2
      vertex 6.29781 10.3573 5
      vertex 7.04372 10.0099 5
    endloop
  endfacet
  facet normal 0.273447 0.961887 0
    outer loop
      vertex 7.04372 10.0099 2
      vertex 7.04372 10.0099 5
      vertex 7.91635 9.76182 2
    endloop
  endfacet
  facet normal 0.273447 0.961887 0
    outer loop
      vertex 7.91635 9.76182 2
      vertex 7.04372 10.0099 5
      vertex 7.91635 9.76182 5
    endloop
  endfacet
  facet normal 0.147125 0.989118 0
    outer loop
      vertex 7.91635 9.76182 2
      vertex 7.91635 9.76182 5
      vertex 8.91627 9.61309 2
    endloop
  endfacet
  facet normal 0.147125 0.989118 0
    outer loop
      vertex 8.91627 9.61309 2
      vertex 7.91635 9.76182 5
      vertex 8.91627 9.61309 5
    endloop
  endfacet
  facet normal 0.0440234 0.999031 0
    outer loop
      vertex 8.91627 9.61309 2
      vertex 8.91627 9.61309 5
      vertex 10.0435 9.56342 2
    endloop
  endfacet
  facet normal 0.0440234 0.999031 0
    outer loop
      vertex 10.0435 9.56342 2
      vertex 8.91627 9.61309 5
      vertex 10.0435 9.56342 5
    endloop
  endfacet
  facet normal -0.0425446 0.999095 0
    outer loop
      vertex 10.0435 9.56342 2
      vertex 10.0435 9.56342 5
      vertex 11.0442 9.60604 2
    endloop
  endfacet
  facet normal -0.0425446 0.999095 0
    outer loop
      vertex 11.0442 9.60604 2
      vertex 10.0435 9.56342 5
      vertex 11.0442 9.60604 5
    endloop
  endfacet
  facet normal -0.139737 0.990189 0
    outer loop
      vertex 11.0442 9.60604 2
      vertex 11.0442 9.60604 5
      vertex 11.9502 9.73388 2
    endloop
  endfacet
  facet normal -0.139737 0.990189 0
    outer loop
      vertex 11.9502 9.73388 2
      vertex 11.0442 9.60604 5
      vertex 11.9502 9.73388 5
    endloop
  endfacet
  facet normal -0.254228 0.967144 0
    outer loop
      vertex 11.9502 9.73388 2
      vertex 11.9502 9.73388 5
      vertex 12.7618 9.94724 2
    endloop
  endfacet
  facet normal -0.254228 0.967144 0
    outer loop
      vertex 12.7618 9.94724 2
      vertex 11.9502 9.73388 5
      vertex 12.7618 9.94724 5
    endloop
  endfacet
  facet normal -0.384074 0.923303 0
    outer loop
      vertex 12.7618 9.94724 2
      vertex 12.7618 9.94724 5
      vertex 13.479 10.2456 2
    endloop
  endfacet
  facet normal -0.384074 0.923303 0
    outer loop
      vertex 13.479 10.2456 2
      vertex 12.7618 9.94724 5
      vertex 13.479 10.2456 5
    endloop
  endfacet
  facet normal -0.528574 0.848887 0
    outer loop
      vertex 13.479 10.2456 2
      vertex 13.479 10.2456 5
      vertex 14.099 10.6316 2
    endloop
  endfacet
  facet normal -0.528574 0.848887 0
    outer loop
      vertex 14.099 10.6316 2
      vertex 13.479 10.2456 5
      vertex 14.099 10.6316 5
    endloop
  endfacet
  facet normal -0.664615 0.747186 0
    outer loop
      vertex 14.099 10.6316 2
      vertex 14.099 10.6316 5
      vertex 14.62 11.095 2
    endloop
  endfacet
  facet normal -0.664615 0.747186 0
    outer loop
      vertex 14.62 11.095 2
      vertex 14.099 10.6316 5
      vertex 14.62 11.095 5
    endloop
  endfacet
  facet normal -0.788754 0.614709 0
    outer loop
      vertex 14.62 11.095 2
      vertex 14.62 11.095 5
      vertex 15.0416 11.6361 2
    endloop
  endfacet
  facet normal -0.788754 0.614709 0
    outer loop
      vertex 15.0416 11.6361 2
      vertex 14.62 11.095 5
      vertex 15.0416 11.6361 5
    endloop
  endfacet
  facet normal -0.886859 0.462041 0
    outer loop
      vertex 15.0416 11.6361 2
      vertex 15.0416 11.6361 5
      vertex 15.3639 12.2547 2
    endloop
  endfacet
  facet normal -0.886859 0.462041 0
    outer loop
      vertex 15.3639 12.2547 2
      vertex 15.0416 11.6361 5
      vertex 15.3639 12.2547 5
    endloop
  endfacet
  facet normal -0.950468 0.310822 0
    outer loop
      vertex 15.3639 12.2547 2
      vertex 15.3639 12.2547 5
      vertex 15.6027 12.9848 2
    endloop
  endfacet
  facet normal -0.950468 0.310822 0
    outer loop
      vertex 15.6027 12.9848 2
      vertex 15.3639 12.2547 5
      vertex 15.6027 12.9848 5
    endloop
  endfacet
  facet normal -0.98101 0.193958 0
    outer loop
      vertex 15.6027 12.9848 2
      vertex 15.6027 12.9848 5
      vertex 15.7734 13.8484 2
    endloop
  endfacet
  facet normal -0.98101 0.193958 0
    outer loop
      vertex 15.7734 13.8484 2
      vertex 15.6027 12.9848 5
      vertex 15.7734 13.8484 5
    endloop
  endfacet
  facet normal -0.994789 0.101957 0
    outer loop
      vertex 15.7734 13.8484 2
      vertex 15.7734 13.8484 5
      vertex 15.8756 14.8452 2
    endloop
  endfacet
  facet normal -0.994789 0.101957 0
    outer loop
      vertex 15.8756 14.8452 2
      vertex 15.7734 13.8484 5
      vertex 15.8756 14.8452 5
    endloop
  endfacet
  facet normal -0.999544 0.0301985 0
    outer loop
      vertex 15.8756 14.8452 2
      vertex 15.8756 14.8452 5
      vertex 15.9097 15.9755 2
    endloop
  endfacet
  facet normal -0.999544 0.0301985 0
    outer loop
      vertex 15.9097 15.9755 2
      vertex 15.8756 14.8452 5
      vertex 15.9097 15.9755 5
    endloop
  endfacet
  facet normal -0.999715 -0.0238807 0
    outer loop
      vertex 15.8747 17.4405 2
      vertex 15.9097 15.9755 2
      vertex 15.8747 17.4405 5
    endloop
  endfacet
  facet normal -0.999715 -0.0238807 0
    outer loop
      vertex 15.8747 17.4405 5
      vertex 15.9097 15.9755 2
      vertex 15.9097 15.9755 5
    endloop
  endfacet
  facet normal -0.996043 -0.0888681 0
    outer loop
      vertex 15.7703 18.6109 2
      vertex 15.8747 17.4405 2
      vertex 15.7703 18.6109 5
    endloop
  endfacet
  facet normal -0.996043 -0.0888681 0
    outer loop
      vertex 15.7703 18.6109 5
      vertex 15.8747 17.4405 2
      vertex 15.8747 17.4405 5
    endloop
  endfacet
  facet normal -0.98075 -0.195265 0
    outer loop
      vertex 15.5959 19.4869 2
      vertex 15.7703 18.6109 2
      vertex 15.5959 19.4869 5
    endloop
  endfacet
  facet normal -0.98075 -0.195265 0
    outer loop
      vertex 15.5959 19.4869 5
      vertex 15.7703 18.6109 2
      vertex 15.7703 18.6109 5
    endloop
  endfacet
  facet normal -0.94487 -0.327446 0
    outer loop
      vertex 15.4824 19.8143 2
      vertex 15.5959 19.4869 2
      vertex 15.4824 19.8143 5
    endloop
  endfacet
  facet normal -0.94487 -0.327446 0
    outer loop
      vertex 15.4824 19.8143 5
      vertex 15.5959 19.4869 2
      vertex 15.5959 19.4869 5
    endloop
  endfacet
  facet normal -0.888828 -0.45824 0
    outer loop
      vertex 15.3515 20.0683 2
      vertex 15.4824 19.8143 2
      vertex 15.3515 20.0683 5
    endloop
  endfacet
  facet normal -0.888828 -0.45824 0
    outer loop
      vertex 15.3515 20.0683 5
      vertex 15.4824 19.8143 2
      vertex 15.4824 19.8143 5
    endloop
  endfacet
  facet normal -0.792197 -0.610265 0
    outer loop
      vertex 15.0363 20.4775 2
      vertex 15.3515 20.0683 2
      vertex 15.0363 20.4775 5
    endloop
  endfacet
  facet normal -0.792197 -0.610265 0
    outer loop
      vertex 15.0363 20.4775 5
      vertex 15.3515 20.0683 2
      vertex 15.3515 20.0683 5
    endloop
  endfacet
  facet normal -0.666177 -0.745793 0
    outer loop
      vertex 14.6476 20.8247 5
      vertex 14.6476 20.8247 2
      vertex 15.0363 20.4775 2
    endloop
  endfacet
  facet normal -0.666177 -0.745793 0
    outer loop
      vertex 15.0363 20.4775 5
      vertex 14.6476 20.8247 5
      vertex 15.0363 20.4775 2
    endloop
  endfacet
  facet normal -0.526158 -0.850387 0
    outer loop
      vertex 14.1865 21.11 5
      vertex 14.1865 21.11 2
      vertex 14.6476 20.8247 2
    endloop
  endfacet
  facet normal -0.526158 -0.850387 0
    outer loop
      vertex 14.6476 20.8247 5
      vertex 14.1865 21.11 5
      vertex 14.6476 20.8247 2
    endloop
  endfacet
  facet normal -0.385723 -0.922615 0
    outer loop
      vertex 13.6525 21.3332 5
      vertex 13.6525 21.3332 2
      vertex 14.1865 21.11 2
    endloop
  endfacet
  facet normal -0.385723 -0.922615 0
    outer loop
      vertex 14.1865 21.11 5
      vertex 13.6525 21.3332 5
      vertex 14.1865 21.11 2
    endloop
  endfacet
  facet normal -0.511819 0.859093 0
    outer loop
      vertex 13.6525 21.3332 2
      vertex 13.6525 21.3332 5
      vertex 14.1859 21.651 2
    endloop
  endfacet
  facet normal -0.511819 0.859093 0
    outer loop
      vertex 14.1859 21.651 2
      vertex 13.6525 21.3332 5
      vertex 14.1859 21.651 5
    endloop
  endfacet
  facet normal -0.598216 0.801335 0
    outer loop
      vertex 14.1859 21.651 2
      vertex 14.1859 21.651 5
      vertex 14.6324 21.9843 2
    endloop
  endfacet
  facet normal -0.598216 0.801335 0
    outer loop
      vertex 14.6324 21.9843 2
      vertex 14.1859 21.651 5
      vertex 14.6324 21.9843 5
    endloop
  endfacet
  facet normal -0.696322 0.71773 0
    outer loop
      vertex 14.6324 21.9843 2
      vertex 14.6324 21.9843 5
      vertex 14.9919 22.3331 2
    endloop
  endfacet
  facet normal -0.696322 0.71773 0
    outer loop
      vertex 14.9919 22.3331 2
      vertex 14.6324 21.9843 5
      vertex 14.9919 22.3331 5
    endloop
  endfacet
  facet normal -0.800372 0.599504 0
    outer loop
      vertex 14.9919 22.3331 2
      vertex 14.9919 22.3331 5
      vertex 15.2649 22.6975 2
    endloop
  endfacet
  facet normal -0.800372 0.599504 0
    outer loop
      vertex 15.2649 22.6975 2
      vertex 14.9919 22.3331 5
      vertex 15.2649 22.6975 5
    endloop
  endfacet
  facet normal -0.908526 0.417828 0
    outer loop
      vertex 15.2649 22.6975 2
      vertex 15.2649 22.6975 5
      vertex 15.4655 23.1338 2
    endloop
  endfacet
  facet normal -0.908526 0.417828 0
    outer loop
      vertex 15.4655 23.1338 2
      vertex 15.2649 22.6975 5
      vertex 15.4655 23.1338 5
    endloop
  endfacet
  facet normal -0.967984 0.251014 0
    outer loop
      vertex 15.4655 23.1338 2
      vertex 15.4655 23.1338 5
      vertex 15.6089 23.6867 2
    endloop
  endfacet
  facet normal -0.967984 0.251014 0
    outer loop
      vertex 15.6089 23.6867 2
      vertex 15.4655 23.1338 5
      vertex 15.6089 23.6867 5
    endloop
  endfacet
  facet normal -0.991821 0.127639 0
    outer loop
      vertex 15.6089 23.6867 2
      vertex 15.6089 23.6867 5
      vertex 15.695 24.3555 2
    endloop
  endfacet
  facet normal -0.991821 0.127639 0
    outer loop
      vertex 15.695 24.3555 2
      vertex 15.6089 23.6867 5
      vertex 15.695 24.3555 5
    endloop
  endfacet
  facet normal -0.999329 0.0366397 0
    outer loop
      vertex 15.695 24.3555 2
      vertex 15.695 24.3555 5
      vertex 15.7237 25.1407 2
    endloop
  endfacet
  facet normal -0.999329 0.0366397 0
    outer loop
      vertex 15.7237 25.1407 2
      vertex 15.695 24.3555 5
      vertex 15.7237 25.1407 5
    endloop
  endfacet
  facet normal -0.997711 -0.0676292 0
    outer loop
      vertex 15.6439 26.319 2
      vertex 15.7237 25.1407 2
      vertex 15.6439 26.319 5
    endloop
  endfacet
  facet normal -0.997711 -0.0676292 0
    outer loop
      vertex 15.6439 26.319 5
      vertex 15.7237 25.1407 2
      vertex 15.7237 25.1407 5
    endloop
  endfacet
  facet normal -0.983186 -0.182606 0
    outer loop
      vertex 15.544 26.8569 2
      vertex 15.6439 26.319 2
      vertex 15.544 26.8569 5
    endloop
  endfacet
  facet normal -0.983186 -0.182606 0
    outer loop
      vertex 15.544 26.8569 5
      vertex 15.6439 26.319 2
      vertex 15.6439 26.319 5
    endloop
  endfacet
  facet normal -0.963634 -0.267226 0
    outer loop
      vertex 15.4043 27.3606 2
      vertex 15.544 26.8569 2
      vertex 15.4043 27.3606 5
    endloop
  endfacet
  facet normal -0.963634 -0.267226 0
    outer loop
      vertex 15.4043 27.3606 5
      vertex 15.544 26.8569 2
      vertex 15.544 26.8569 5
    endloop
  endfacet
  facet normal -0.934167 -0.356835 0
    outer loop
      vertex 15.2248 27.8305 2
      vertex 15.4043 27.3606 2
      vertex 15.2248 27.8305 5
    endloop
  endfacet
  facet normal -0.934167 -0.356835 0
    outer loop
      vertex 15.2248 27.8305 5
      vertex 15.4043 27.3606 2
      vertex 15.4043 27.3606 5
    endloop
  endfacet
  facet normal -0.893035 -0.449988 0
    outer loop
      vertex 15.0052 28.2663 2
      vertex 15.2248 27.8305 2
      vertex 15.0052 28.2663 5
    endloop
  endfacet
  facet normal -0.893035 -0.449988 0
    outer loop
      vertex 15.0052 28.2663 5
      vertex 15.2248 27.8305 2
      vertex 15.2248 27.8305 5
    endloop
  endfacet
  facet normal -0.839602 -0.543202 0
    outer loop
      vertex 14.7456 28.6676 2
      vertex 15.0052 28.2663 2
      vertex 14.7456 28.6676 5
    endloop
  endfacet
  facet normal -0.839602 -0.543202 0
    outer loop
      vertex 14.7456 28.6676 5
      vertex 15.0052 28.2663 2
      vertex 15.0052 28.2663 5
    endloop
  endfacet
  facet normal -0.775203 -0.631713 0
    outer loop
      vertex 14.4461 29.0351 2
      vertex 14.7456 28.6676 2
      vertex 14.4461 29.0351 5
    endloop
  endfacet
  facet normal -0.775203 -0.631713 0
    outer loop
      vertex 14.4461 29.0351 5
      vertex 14.7456 28.6676 2
      vertex 14.7456 28.6676 5
    endloop
  endfacet
  facet normal -0.678861 -0.734267 0
    outer loop
      vertex 14.0908 29.3636 5
      vertex 14.0908 29.3636 2
      vertex 14.4461 29.0351 2
    endloop
  endfacet
  facet normal -0.678861 -0.734267 0
    outer loop
      vertex 14.4461 29.0351 5
      vertex 14.0908 29.3636 5
      vertex 14.4461 29.0351 2
    endloop
  endfacet
  facet normal -0.55432 -0.832304 0
    outer loop
      vertex 13.6632 29.6483 5
      vertex 13.6632 29.6483 2
      vertex 14.0908 29.3636 2
    endloop
  endfacet
  facet normal -0.55432 -0.832304 0
    outer loop
      vertex 14.0908 29.3636 5
      vertex 13.6632 29.6483 5
      vertex 14.0908 29.3636 2
    endloop
  endfacet
  facet normal -0.434137 -0.900847 0
    outer loop
      vertex 13.1637 29.8891 5
      vertex 13.1637 29.8891 2
      vertex 13.6632 29.6483 2
    endloop
  endfacet
  facet normal -0.434137 -0.900847 0
    outer loop
      vertex 13.6632 29.6483 5
      vertex 13.1637 29.8891 5
      vertex 13.6632 29.6483 2
    endloop
  endfacet
  facet normal -0.325876 -0.945413 0
    outer loop
      vertex 12.5922 30.0861 5
      vertex 12.5922 30.0861 2
      vertex 13.1637 29.8891 2
    endloop
  endfacet
  facet normal -0.325876 -0.945413 0
    outer loop
      vertex 13.1637 29.8891 5
      vertex 12.5922 30.0861 5
      vertex 13.1637 29.8891 2
    endloop
  endfacet
  facet normal -0.231986 -0.972719 0
    outer loop
      vertex 11.9485 30.2396 5
      vertex 11.9485 30.2396 2
      vertex 12.5922 30.0861 2
    endloop
  endfacet
  facet normal -0.231986 -0.972719 0
    outer loop
      vertex 12.5922 30.0861 5
      vertex 11.9485 30.2396 5
      vertex 12.5922 30.0861 2
    endloop
  endfacet
  facet normal -0.151179 -0.988506 0
    outer loop
      vertex 11.2325 30.3491 5
      vertex 11.2325 30.3491 2
      vertex 11.9485 30.2396 2
    endloop
  endfacet
  facet normal -0.151179 -0.988506 0
    outer loop
      vertex 11.9485 30.2396 5
      vertex 11.2325 30.3491 5
      vertex 11.9485 30.2396 2
    endloop
  endfacet
  facet normal -0.0828092 -0.996565 0
    outer loop
      vertex 10.4445 30.4146 5
      vertex 10.4445 30.4146 2
      vertex 11.2325 30.3491 2
    endloop
  endfacet
  facet normal -0.0828092 -0.996565 0
    outer loop
      vertex 11.2325 30.3491 5
      vertex 10.4445 30.4146 5
      vertex 11.2325 30.3491 2
    endloop
  endfacet
  facet normal -0.0255906 -0.999673 0
    outer loop
      vertex 9.58457 30.4366 5
      vertex 9.58457 30.4366 2
      vertex 10.4445 30.4146 2
    endloop
  endfacet
  facet normal -0.0255906 -0.999673 0
    outer loop
      vertex 10.4445 30.4146 5
      vertex 9.58457 30.4366 5
      vertex 10.4445 30.4146 2
    endloop
  endfacet
  facet normal 0.0474849 -0.998872 0
    outer loop
      vertex 8.24881 30.3731 5
      vertex 8.24881 30.3731 2
      vertex 9.58457 30.4366 2
    endloop
  endfacet
  facet normal 0.0474849 -0.998872 0
    outer loop
      vertex 9.58457 30.4366 5
      vertex 8.24881 30.3731 5
      vertex 9.58457 30.4366 2
    endloop
  endfacet
  facet normal 0.164834 -0.986321 0
    outer loop
      vertex 7.10722 30.1823 5
      vertex 7.10722 30.1823 2
      vertex 8.24881 30.3731 2
    endloop
  endfacet
  facet normal 0.164834 -0.986321 0
    outer loop
      vertex 8.24881 30.3731 5
      vertex 7.10722 30.1823 5
      vertex 8.24881 30.3731 2
    endloop
  endfacet
  facet normal 0.275943 -0.961174 0
    outer loop
      vertex 6.60882 30.0392 5
      vertex 6.60882 30.0392 2
      vertex 7.10722 30.1823 2
    endloop
  endfacet
  facet normal 0.275943 -0.961174 0
    outer loop
      vertex 7.10722 30.1823 5
      vertex 6.60882 30.0392 5
      vertex 7.10722 30.1823 2
    endloop
  endfacet
  facet normal 0.362192 -0.932103 0
    outer loop
      vertex 6.15924 29.8645 5
      vertex 6.15924 29.8645 2
      vertex 6.60882 30.0392 2
    endloop
  endfacet
  facet normal 0.362192 -0.932103 0
    outer loop
      vertex 6.60882 30.0392 5
      vertex 6.15924 29.8645 5
      vertex 6.60882 30.0392 2
    endloop
  endfacet
  facet normal 0.457687 -0.889113 0
    outer loop
      vertex 5.75792 29.6579 5
      vertex 5.75792 29.6579 2
      vertex 6.15924 29.8645 2
    endloop
  endfacet
  facet normal 0.457687 -0.889113 0
    outer loop
      vertex 6.15924 29.8645 5
      vertex 5.75792 29.6579 5
      vertex 6.15924 29.8645 2
    endloop
  endfacet
  facet normal 0.559734 -0.828672 0
    outer loop
      vertex 5.40486 29.4194 5
      vertex 5.40486 29.4194 2
      vertex 5.75792 29.6579 2
    endloop
  endfacet
  facet normal 0.559734 -0.828672 0
    outer loop
      vertex 5.75792 29.6579 5
      vertex 5.40486 29.4194 5
      vertex 5.75792 29.6579 2
    endloop
  endfacet
  facet normal 0.672774 -0.739848 0
    outer loop
      vertex 5.09667 29.1392 5
      vertex 5.09667 29.1392 2
      vertex 5.40486 29.4194 2
    endloop
  endfacet
  facet normal 0.672774 -0.739848 0
    outer loop
      vertex 5.40486 29.4194 5
      vertex 5.09667 29.1392 5
      vertex 5.40486 29.4194 2
    endloop
  endfacet
  facet normal 0.785569 -0.618774 0
    outer loop
      vertex 4.82969 28.8003 5
      vertex 4.82969 28.8003 2
      vertex 5.09667 29.1392 2
    endloop
  endfacet
  facet normal 0.785569 -0.618774 0
    outer loop
      vertex 5.09667 29.1392 5
      vertex 4.82969 28.8003 5
      vertex 5.09667 29.1392 2
    endloop
  endfacet
  facet normal 0.869457 -0.494009 0
    outer loop
      vertex 4.60391 28.4029 5
      vertex 4.60391 28.4029 2
      vertex 4.82969 28.8003 2
    endloop
  endfacet
  facet normal 0.869457 -0.494009 0
    outer loop
      vertex 4.82969 28.8003 5
      vertex 4.60391 28.4029 5
      vertex 4.82969 28.8003 2
    endloop
  endfacet
  facet normal 0.926766 -0.375639 0
    outer loop
      vertex 4.41906 27.9468 5
      vertex 4.41906 27.9468 2
      vertex 4.60391 28.4029 2
    endloop
  endfacet
  facet normal 0.926766 -0.375639 0
    outer loop
      vertex 4.60391 28.4029 5
      vertex 4.41906 27.9468 5
      vertex 4.60391 28.4029 2
    endloop
  endfacet
  facet normal 0.963024 -0.269414 0
    outer loop
      vertex 4.27512 27.4323 5
      vertex 4.27512 27.4323 2
      vertex 4.41906 27.9468 2
    endloop
  endfacet
  facet normal 0.963024 -0.269414 0
    outer loop
      vertex 4.41906 27.9468 5
      vertex 4.27512 27.4323 5
      vertex 4.41906 27.9468 2
    endloop
  endfacet
  facet normal 0.984317 -0.176411 0
    outer loop
      vertex 4.17239 26.8591 5
      vertex 4.17239 26.8591 2
      vertex 4.27512 27.4323 2
    endloop
  endfacet
  facet normal 0.984317 -0.176411 0
    outer loop
      vertex 4.27512 27.4323 5
      vertex 4.17239 26.8591 5
      vertex 4.27512 27.4323 2
    endloop
  endfacet
  facet normal 0.995285 -0.0969925 0
    outer loop
      vertex 4.11087 26.2278 5
      vertex 4.11087 26.2278 2
      vertex 4.17239 26.8591 2
    endloop
  endfacet
  facet normal 0.995285 -0.0969925 0
    outer loop
      vertex 4.17239 26.8591 5
      vertex 4.11087 26.2278 5
      vertex 4.17239 26.8591 2
    endloop
  endfacet
  facet normal 0.999555 -0.0298436 0
    outer loop
      vertex 4.09027 25.5378 5
      vertex 4.09027 25.5378 2
      vertex 4.11087 26.2278 2
    endloop
  endfacet
  facet normal 0.999555 -0.0298436 0
    outer loop
      vertex 4.11087 26.2278 5
      vertex 4.09027 25.5378 5
      vertex 4.11087 26.2278 2
    endloop
  endfacet
  facet normal 1 0 0
    outer loop
      vertex 4.09027 23.8261 5
      vertex 4.09027 23.8261 2
      vertex 4.09027 25.5378 2
    endloop
  endfacet
  facet normal 1 0 0
    outer loop
      vertex 4.09027 25.5378 5
      vertex 4.09027 23.8261 5
      vertex 4.09027 25.5378 2
    endloop
  endfacet
  facet normal 0 1 0
    outer loop
      vertex 4.09027 23.8261 2
      vertex 4.09027 23.8261 5
      vertex 9.10084 23.8261 2
    endloop
  endfacet
  facet normal 0 1 0
    outer loop
      vertex 9.10084 23.8261 2
      vertex 4.09027 23.8261 5
      vertex 9.10084 23.8261 5
    endloop
  endfacet
  facet normal -1 0 0
    outer loop
      vertex 9.10084 23.8261 2
      vertex 9.10084 23.8261 5
      vertex 9.10084 25.4757 2
    endloop
  endfacet
  facet normal -1 0 0
    outer loop
      vertex 9.10084 25.4757 2
      vertex 9.10084 23.8261 5
      vertex 9.10084 25.4757 5
    endloop
  endfacet
  facet normal -0.998806 0.0488595 0
    outer loop
      vertex 9.10084 25.4757 2
      vertex 9.10084 25.4757 5
      vertex 9.14741 26.4276 2
    endloop
  endfacet
  facet normal -0.998806 0.0488595 0
    outer loop
      vertex 9.14741 26.4276 2
      vertex 9.10084 25.4757 5
      vertex 9.14741 26.4276 5
    endloop
  endfacet
  facet normal -0.984332 0.176324 0
    outer loop
      vertex 9.14741 26.4276 2
      vertex 9.14741 26.4276 5
      vertex 9.20554 26.7522 2
    endloop
  endfacet
  facet normal -0.984332 0.176324 0
    outer loop
      vertex 9.20554 26.7522 2
      vertex 9.14741 26.4276 5
      vertex 9.20554 26.7522 5
    endloop
  endfacet
  facet normal -0.94007 0.340982 0
    outer loop
      vertex 9.20554 26.7522 2
      vertex 9.20554 26.7522 5
      vertex 9.28682 26.9763 2
    endloop
  endfacet
  facet normal -0.94007 0.340982 0
    outer loop
      vertex 9.28682 26.9763 2
      vertex 9.20554 26.7522 5
      vertex 9.28682 26.9763 5
    endloop
  endfacet
  facet normal -0.796905 0.604105 0
    outer loop
      vertex 9.28682 26.9763 2
      vertex 9.28682 26.9763 5
      vertex 9.4062 27.1337 2
    endloop
  endfacet
  facet normal -0.796905 0.604105 0
    outer loop
      vertex 9.4062 27.1337 2
      vertex 9.28682 26.9763 5
      vertex 9.4062 27.1337 5
    endloop
  endfacet
  facet normal -0.575207 0.818008 0
    outer loop
      vertex 9.4062 27.1337 2
      vertex 9.4062 27.1337 5
      vertex 9.56594 27.2461 2
    endloop
  endfacet
  facet normal -0.575207 0.818008 0
    outer loop
      vertex 9.56594 27.2461 2
      vertex 9.4062 27.1337 5
      vertex 9.56594 27.2461 5
    endloop
  endfacet
  facet normal -0.319434 0.947609 0
    outer loop
      vertex 9.56594 27.2461 2
      vertex 9.56594 27.2461 5
      vertex 9.76604 27.3135 2
    endloop
  endfacet
  facet normal -0.319434 0.947609 0
    outer loop
      vertex 9.76604 27.3135 2
      vertex 9.56594 27.2461 5
      vertex 9.76604 27.3135 5
    endloop
  endfacet
  facet normal -0.0935944 0.99561 0
    outer loop
      vertex 9.76604 27.3135 2
      vertex 9.76604 27.3135 5
      vertex 10.0062 27.3361 2
    endloop
  endfacet
  facet normal -0.0935944 0.99561 0
    outer loop
      vertex 10.0062 27.3361 2
      vertex 9.76604 27.3135 5
      vertex 10.0062 27.3361 5
    endloop
  endfacet
  facet normal 0.0984638 0.995141 0
    outer loop
      vertex 10.0062 27.3361 2
      vertex 10.0062 27.3361 5
      vertex 10.2201 27.3149 2
    endloop
  endfacet
  facet normal 0.0984638 0.995141 0
    outer loop
      vertex 10.2201 27.3149 2
      vertex 10.0062 27.3361 5
      vertex 10.2201 27.3149 5
    endloop
  endfacet
  facet normal 0.3241 0.946023 0
    outer loop
      vertex 10.2201 27.3149 2
      vertex 10.2201 27.3149 5
      vertex 10.403 27.2523 2
    endloop
  endfacet
  facet normal 0.3241 0.946023 0
    outer loop
      vertex 10.403 27.2523 2
      vertex 10.2201 27.3149 5
      vertex 10.403 27.2523 5
    endloop
  endfacet
  facet normal 0.566983 0.82373 0
    outer loop
      vertex 10.403 27.2523 2
      vertex 10.403 27.2523 5
      vertex 10.5551 27.1476 2
    endloop
  endfacet
  facet normal 0.566983 0.82373 0
    outer loop
      vertex 10.5551 27.1476 2
      vertex 10.403 27.2523 5
      vertex 10.5551 27.1476 5
    endloop
  endfacet
  facet normal 0.771501 0.636228 0
    outer loop
      vertex 10.6759 27.0011 2
      vertex 10.5551 27.1476 2
      vertex 10.5551 27.1476 5
    endloop
  endfacet
  facet normal 0.771501 0.636228 0
    outer loop
      vertex 10.6759 27.0011 5
      vertex 10.6759 27.0011 2
      vertex 10.5551 27.1476 5
    endloop
  endfacet
  facet normal 0.908454 0.417985 0
    outer loop
      vertex 10.7736 26.7889 2
      vertex 10.6759 27.0011 2
      vertex 10.6759 27.0011 5
    endloop
  endfacet
  facet normal 0.908454 0.417985 0
    outer loop
      vertex 10.7736 26.7889 5
      vertex 10.7736 26.7889 2
      vertex 10.6759 27.0011 5
    endloop
  endfacet
  facet normal 0.974468 0.224528 0
    outer loop
      vertex 10.8433 26.4863 2
      vertex 10.7736 26.7889 2
      vertex 10.7736 26.7889 5
    endloop
  endfacet
  facet normal 0.974468 0.224528 0
    outer loop
      vertex 10.8433 26.4863 5
      vertex 10.8433 26.4863 2
      vertex 10.7736 26.7889 5
    endloop
  endfacet
  facet normal 0.997964 0.0637821 0
    outer loop
      vertex 10.8992 25.612 2
      vertex 10.8433 26.4863 2
      vertex 10.8433 26.4863 5
    endloop
  endfacet
  facet normal 0.997964 0.0637821 0
    outer loop
      vertex 10.8992 25.612 5
      vertex 10.8992 25.612 2
      vertex 10.8433 26.4863 5
    endloop
  endfacet
  facet normal 1 0 0
    outer loop
      vertex 10.8992 24.4958 5
      vertex 10.8992 24.4958 2
      vertex 10.8992 25.612 2
    endloop
  endfacet
  facet normal 1 0 0
    outer loop
      vertex 10.8992 25.612 5
      vertex 10.8992 24.4958 5
      vertex 10.8992 25.612 2
    endloop
  endfacet
  facet normal 0.998501 -0.0547351 0
    outer loop
      vertex 10.8526 23.6463 5
      vertex 10.8526 23.6463 2
      vertex 10.8992 24.4958 2
    endloop
  endfacet
  facet normal 0.998501 -0.0547351 0
    outer loop
      vertex 10.8992 24.4958 5
      vertex 10.8526 23.6463 5
      vertex 10.8992 24.4958 2
    endloop
  endfacet
  facet normal 0.973111 -0.230339 0
    outer loop
      vertex 10.7132 23.0573 5
      vertex 10.7132 23.0573 2
      vertex 10.8526 23.6463 2
    endloop
  endfacet
  facet normal 0.973111 -0.230339 0
    outer loop
      vertex 10.8526 23.6463 5
      vertex 10.7132 23.0573 5
      vertex 10.8526 23.6463 2
    endloop
  endfacet
  facet normal 0.889093 -0.457727 0
    outer loop
      vertex 10.6054 22.8479 5
      vertex 10.6054 22.8479 2
      vertex 10.7132 23.0573 2
    endloop
  endfacet
  facet normal 0.889093 -0.457727 0
    outer loop
      vertex 10.7132 23.0573 5
      vertex 10.6054 22.8479 5
      vertex 10.7132 23.0573 2
    endloop
  endfacet
  facet normal 0.77655 -0.630056 0
    outer loop
      vertex 10.4682 22.6789 5
      vertex 10.4682 22.6789 2
      vertex 10.6054 22.8479 2
    endloop
  endfacet
  facet normal 0.77655 -0.630056 0
    outer loop
      vertex 10.6054 22.8479 5
      vertex 10.4682 22.6789 5
      vertex 10.6054 22.8479 2
    endloop
  endfacet
  facet normal 0.610875 -0.791727 0
    outer loop
      vertex 10.3014 22.5502 5
      vertex 10.3014 22.5502 2
      vertex 10.4682 22.6789 2
    endloop
  endfacet
  facet normal 0.610875 -0.791727 0
    outer loop
      vertex 10.4682 22.6789 5
      vertex 10.3014 22.5502 5
      vertex 10.4682 22.6789 2
    endloop
  endfacet
  facet normal 0.411129 -0.911577 0
    outer loop
      vertex 10.1056 22.4618 5
      vertex 10.1056 22.4618 2
      vertex 10.3014 22.5502 2
    endloop
  endfacet
  facet normal 0.411129 -0.911577 0
    outer loop
      vertex 10.3014 22.5502 5
      vertex 10.1056 22.4618 5
      vertex 10.3014 22.5502 2
    endloop
  endfacet
  facet normal 0.13274 -0.991151 0
    outer loop
      vertex 9.3427 22.3597 5
      vertex 9.3427 22.3597 2
      vertex 10.1056 22.4618 2
    endloop
  endfacet
  facet normal 0.13274 -0.991151 0
    outer loop
      vertex 10.1056 22.4618 5
      vertex 9.3427 22.3597 5
      vertex 10.1056 22.4618 2
    endloop
  endfacet
  facet normal 0.0236262 -0.999721 0
    outer loop
      vertex 7.89773 22.3255 5
      vertex 7.89773 22.3255 2
      vertex 9.3427 22.3597 2
    endloop
  endfacet
  facet normal 0.0236262 -0.999721 0
    outer loop
      vertex 9.3427 22.3597 5
      vertex 7.89773 22.3255 5
      vertex 9.3427 22.3597 2
    endloop
  endfacet
  facet normal 1 0 0
    outer loop
      vertex 7.89773 19.411 5
      vertex 7.89773 19.411 2
      vertex 7.89773 22.3255 2
    endloop
  endfacet
  facet normal 1 0 0
    outer loop
      vertex 7.89773 22.3255 5
      vertex 7.89773 19.411 5
      vertex 7.89773 22.3255 2
    endloop
  endfacet
  facet normal 0.0506262 0.998718 0
    outer loop
      vertex 7.89773 19.411 2
      vertex 7.89773 19.411 5
      vertex 9.12257 19.3489 2
    endloop
  endfacet
  facet normal 0.0506262 0.998718 0
    outer loop
      vertex 9.12257 19.3489 2
      vertex 7.89773 19.411 5
      vertex 9.12257 19.3489 5
    endloop
  endfacet
  facet normal 0.179801 0.983703 0
    outer loop
      vertex 9.12257 19.3489 2
      vertex 9.12257 19.3489 5
      vertex 9.8699 19.2123 2
    endloop
  endfacet
  facet normal 0.179801 0.983703 0
    outer loop
      vertex 9.8699 19.2123 2
      vertex 9.12257 19.3489 5
      vertex 9.8699 19.2123 5
    endloop
  endfacet
  facet normal 0.398885 0.917001 0
    outer loop
      vertex 9.8699 19.2123 2
      vertex 9.8699 19.2123 5
      vertex 10.1087 19.1085 2
    endloop
  endfacet
  facet normal 0.398885 0.917001 0
    outer loop
      vertex 10.1087 19.1085 2
      vertex 9.8699 19.2123 5
      vertex 10.1087 19.1085 5
    endloop
  endfacet
  facet normal 0.585812 0.810447 0
    outer loop
      vertex 10.1087 19.1085 2
      vertex 10.1087 19.1085 5
      vertex 10.3164 18.9583 2
    endloop
  endfacet
  facet normal 0.585812 0.810447 0
    outer loop
      vertex 10.3164 18.9583 2
      vertex 10.1087 19.1085 5
      vertex 10.3164 18.9583 5
    endloop
  endfacet
  facet normal 0.74446 0.667667 0
    outer loop
      vertex 10.493 18.7613 2
      vertex 10.3164 18.9583 2
      vertex 10.3164 18.9583 5
    endloop
  endfacet
  facet normal 0.74446 0.667667 0
    outer loop
      vertex 10.493 18.7613 5
      vertex 10.493 18.7613 2
      vertex 10.3164 18.9583 5
    endloop
  endfacet
  facet normal 0.858019 0.513617 0
    outer loop
      vertex 10.6387 18.5181 2
      vertex 10.493 18.7613 2
      vertex 10.493 18.7613 5
    endloop
  endfacet
  facet normal 0.858019 0.513617 0
    outer loop
      vertex 10.6387 18.5181 5
      vertex 10.6387 18.5181 2
      vertex 10.493 18.7613 5
    endloop
  endfacet
  facet normal 0.936932 0.349511 0
    outer loop
      vertex 10.7527 18.2124 2
      vertex 10.6387 18.5181 2
      vertex 10.6387 18.5181 5
    endloop
  endfacet
  facet normal 0.936932 0.349511 0
    outer loop
      vertex 10.7527 18.2124 5
      vertex 10.7527 18.2124 2
      vertex 10.6387 18.5181 5
    endloop
  endfacet
  facet normal 0.978181 0.207755 0
    outer loop
      vertex 10.834 17.8297 2
      vertex 10.7527 18.2124 2
      vertex 10.7527 18.2124 5
    endloop
  endfacet
  facet normal 0.978181 0.207755 0
    outer loop
      vertex 10.834 17.8297 5
      vertex 10.834 17.8297 2
      vertex 10.7527 18.2124 5
    endloop
  endfacet
  facet normal 0.997875 0.0651524 0
    outer loop
      vertex 10.8992 16.8312 2
      vertex 10.834 17.8297 2
      vertex 10.834 17.8297 5
    endloop
  endfacet
  facet normal 0.997875 0.0651524 0
    outer loop
      vertex 10.8992 16.8312 5
      vertex 10.8992 16.8312 2
      vertex 10.834 17.8297 5
    endloop
  endfacet
  facet normal 1 0 0
    outer loop
      vertex 10.8992 15.4421 5
      vertex 10.8992 15.4421 2
      vertex 10.8992 16.8312 2
    endloop
  endfacet
  facet normal 1 0 0
    outer loop
      vertex 10.8992 16.8312 5
      vertex 10.8992 15.4421 5
      vertex 10.8992 16.8312 2
    endloop
  endfacet
  facet normal 0.999534 -0.0305131 0
    outer loop
      vertex 10.8526 13.9167 5
      vertex 10.8526 13.9167 2
      vertex 10.8992 15.4421 2
    endloop
  endfacet
  facet normal 0.999534 -0.0305131 0
    outer loop
      vertex 10.8992 15.4421 5
      vertex 10.8526 13.9167 5
      vertex 10.8992 15.4421 2
    endloop
  endfacet
  facet normal 0.99312 -0.117105 0
    outer loop
      vertex 10.7945 13.4237 5
      vertex 10.7945 13.4237 2
      vertex 10.8526 13.9167 2
    endloop
  endfacet
  facet normal 0.99312 -0.117105 0
    outer loop
      vertex 10.8526 13.9167 5
      vertex 10.7945 13.4237 5
      vertex 10.8526 13.9167 2
    endloop
  endfacet
  facet normal 0.96795 -0.251144 0
    outer loop
      vertex 10.7132 13.1104 5
      vertex 10.7132 13.1104 2
      vertex 10.7945 13.4237 2
    endloop
  endfacet
  facet normal 0.96795 -0.251144 0
    outer loop
      vertex 10.7945 13.4237 5
      vertex 10.7132 13.1104 5
      vertex 10.7945 13.4237 2
    endloop
  endfacet
  facet normal 0.855961 -0.51704 0
    outer loop
      vertex 10.5952 12.9151 5
      vertex 10.5952 12.9151 2
      vertex 10.7132 13.1104 2
    endloop
  endfacet
  facet normal 0.855961 -0.51704 0
    outer loop
      vertex 10.7132 13.1104 5
      vertex 10.5952 12.9151 5
      vertex 10.7132 13.1104 2
    endloop
  endfacet
  facet normal 0.640057 -0.768327 0
    outer loop
      vertex 10.4278 12.7757 5
      vertex 10.4278 12.7757 2
      vertex 10.5952 12.9151 2
    endloop
  endfacet
  facet normal 0.640057 -0.768327 0
    outer loop
      vertex 10.5952 12.9151 5
      vertex 10.4278 12.7757 5
      vertex 10.5952 12.9151 2
    endloop
  endfacet
  facet normal 0.360279 -0.932844 0
    outer loop
      vertex 10.2108 12.6919 5
      vertex 10.2108 12.6919 2
      vertex 10.4278 12.7757 2
    endloop
  endfacet
  facet normal 0.360279 -0.932844 0
    outer loop
      vertex 10.4278 12.7757 5
      vertex 10.2108 12.6919 5
      vertex 10.4278 12.7757 2
    endloop
  endfacet
  facet normal 0.104192 -0.994557 0
    outer loop
      vertex 9.94412 12.6639 5
      vertex 9.94412 12.6639 2
      vertex 10.2108 12.6919 2
    endloop
  endfacet
  facet normal 0.104192 -0.994557 0
    outer loop
      vertex 10.2108 12.6919 5
      vertex 9.94412 12.6639 5
      vertex 10.2108 12.6919 2
    endloop
  endfacet
  facet normal -0.0889729 -0.996034 0
    outer loop
      vertex 9.70084 12.6856 5
      vertex 9.70084 12.6856 2
      vertex 9.94412 12.6639 2
    endloop
  endfacet
  facet normal -0.0889729 -0.996034 0
    outer loop
      vertex 9.94412 12.6639 5
      vertex 9.70084 12.6856 5
      vertex 9.94412 12.6639 2
    endloop
  endfacet
  facet normal -0.314187 -0.949361 0
    outer loop
      vertex 9.50385 12.7508 5
      vertex 9.50385 12.7508 2
      vertex 9.70084 12.6856 2
    endloop
  endfacet
  facet normal -0.314187 -0.949361 0
    outer loop
      vertex 9.70084 12.6856 5
      vertex 9.50385 12.7508 5
      vertex 9.70084 12.6856 2
    endloop
  endfacet
  facet normal -0.584545 -0.811361 0
    outer loop
      vertex 9.35343 12.8592 5
      vertex 9.35343 12.8592 2
      vertex 9.50385 12.7508 2
    endloop
  endfacet
  facet normal -0.584545 -0.811361 0
    outer loop
      vertex 9.50385 12.7508 5
      vertex 9.35343 12.8592 5
      vertex 9.50385 12.7508 2
    endloop
  endfacet
  facet normal -0.825871 -0.56386 0
    outer loop
      vertex 9.24957 13.0113 2
      vertex 9.35343 12.8592 2
      vertex 9.24957 13.0113 5
    endloop
  endfacet
  facet normal -0.825871 -0.56386 0
    outer loop
      vertex 9.24957 13.0113 5
      vertex 9.35343 12.8592 2
      vertex 9.35343 12.8592 5
    endloop
  endfacet
  facet normal -0.982909 -0.184092 0
    outer loop
      vertex 9.13809 13.6065 2
      vertex 9.24957 13.0113 2
      vertex 9.13809 13.6065 5
    endloop
  endfacet
  facet normal -0.982909 -0.184092 0
    outer loop
      vertex 9.13809 13.6065 5
      vertex 9.24957 13.0113 2
      vertex 9.24957 13.0113 5
    endloop
  endfacet
  facet normal -0.999391 -0.0349086 0
    outer loop
      vertex 9.10084 14.6731 2
      vertex 9.13809 13.6065 2
      vertex 9.10084 14.6731 5
    endloop
  endfacet
  facet normal -0.999391 -0.0349086 0
    outer loop
      vertex 9.10084 14.6731 5
      vertex 9.13809 13.6065 2
      vertex 9.13809 13.6065 5
    endloop
  endfacet
  facet normal -1 0 0
    outer loop
      vertex 9.10084 14.6731 2
      vertex 9.10084 14.6731 5
      vertex 9.10084 17.935 2
    endloop
  endfacet
  facet normal -1 0 0
    outer loop
      vertex 9.10084 17.935 2
      vertex 9.10084 14.6731 5
      vertex 9.10084 17.935 5
    endloop
  endfacet
  facet normal 0 -1 0
    outer loop
      vertex 4.09027 17.935 5
      vertex 4.09027 17.935 2
      vertex 9.10084 17.935 2
    endloop
  endfacet
  facet normal 0 -1 0
    outer loop
      vertex 9.10084 17.935 5
      vertex 4.09027 17.935 5
      vertex 9.10084 17.935 2
    endloop
  endfacet
  facet normal 0 0 1
    outer loop
      vertex 4.09027 17.935 2
      vertex 4.09027 16.3475 2
      vertex 4.11651 15.0213 2
    endloop
  endfacet
  facet normal 0 0 1
    outer loop
      vertex 4.32762 13.006 2
      vertex 4.09027 17.935 2
      vertex 4.19582 13.9074 2
    endloop
  endfacet
  facet normal 0 0 1
    outer loop
      vertex 4.19582 13.9074 2
      vertex 4.09027 17.935 2
      vertex 4.11651 15.0213 2
    endloop
  endfacet
  facet normal 0 0 1
    outer loop
      vertex 4.51191 12.3168 2
      vertex 4.09027 17.935 2
      vertex 4.32762 13.006 2
    endloop
  endfacet
  facet normal 0 0 1
    outer loop
      vertex 4.78623 11.7617 2
      vertex 4.09027 17.935 2
      vertex 4.51191 12.3168 2
    endloop
  endfacet
  facet normal 0 0 1
    outer loop
      vertex 5.17541 11.2503 2
      vertex 4.09027 17.935 2
      vertex 4.78623 11.7617 2
    endloop
  endfacet
  facet normal 0 0 1
    outer loop
      vertex 5.67946 10.7821 2
      vertex 4.09027 17.935 2
      vertex 5.17541 11.2503 2
    endloop
  endfacet
  facet normal 0 0 1
    outer loop
      vertex 6.29781 10.3573 2
      vertex 4.09027 17.935 2
      vertex 5.67946 10.7821 2
    endloop
  endfacet
  facet normal 0 0 1
    outer loop
      vertex 7.04372 10.0099 2
      vertex 4.09027 17.935 2
      vertex 6.29781 10.3573 2
    endloop
  endfacet
  facet normal 0 0 1
    outer loop
      vertex 7.91635 9.76182 2
      vertex 4.09027 17.935 2
      vertex 7.04372 10.0099 2
    endloop
  endfacet
  facet normal 0 0 1
    outer loop
      vertex 8.91627 9.61309 2
      vertex 4.09027 17.935 2
      vertex 7.91635 9.76182 2
    endloop
  endfacet
  facet normal 0 0 1
    outer loop
      vertex 10.0435 9.56342 2
      vertex 4.09027 17.935 2
      vertex 8.91627 9.61309 2
    endloop
  endfacet
  facet normal 0 0 1
    outer loop
      vertex 11.0442 9.60604 2
      vertex 4.09027 17.935 2
      vertex 10.0435 9.56342 2
    endloop
  endfacet
  facet normal 0 0 1
    outer loop
      vertex 11.9502 9.73388 2
      vertex 4.09027 17.935 2
      vertex 11.0442 9.60604 2
    endloop
  endfacet
  facet normal 0 0 1
    outer loop
      vertex 9.35343 12.8592 2
      vertex 4.09027 17.935 2
      vertex 11.9502 9.73388 2
    endloop
  endfacet
  facet normal 0 0 1
    outer loop
      vertex 9.35343 12.8592 2
      vertex 9.24957 13.0113 2
      vertex 4.09027 17.935 2
    endloop
  endfacet
  facet normal 0 0 1
    outer loop
      vertex 9.94412 12.6639 2
      vertex 9.70084 12.6856 2
      vertex 12.7618 9.94724 2
    endloop
  endfacet
  facet normal 0 0 1
    outer loop
      vertex 10.4278 12.7757 2
      vertex 10.2108 12.6919 2
      vertex 13.479 10.2456 2
    endloop
  endfacet
  facet normal 0 0 1
    outer loop
      vertex 9.24957 13.0113 2
      vertex 9.13809 13.6065 2
      vertex 4.09027 17.935 2
    endloop
  endfacet
  facet normal 0 0 1
    outer loop
      vertex 10.8526 13.9167 2
      vertex 10.7945 13.4237 2
      vertex 14.62 11.095 2
    endloop
  endfacet
  facet normal 0 0 1
    outer loop
      vertex 10.8992 15.4421 2
      vertex 15.3639 12.2547 2
      vertex 15.6027 12.9848 2
    endloop
  endfacet
  facet normal 0 0 1
    outer loop
      vertex 10.8992 15.4421 2
      vertex 15.0416 11.6361 2
      vertex 15.3639 12.2547 2
    endloop
  endfacet
  facet normal 0 0 1
    outer loop
      vertex 10.8992 15.4421 2
      vertex 10.8526 13.9167 2
      vertex 15.0416 11.6361 2
    endloop
  endfacet
  facet normal 0 0 1
    outer loop
      vertex 10.8992 16.8312 2
      vertex 15.8756 14.8452 2
      vertex 15.9097 15.9755 2
    endloop
  endfacet
  facet normal 0 0 1
    outer loop
      vertex 10.834 17.8297 2
      vertex 10.8992 16.8312 2
      vertex 15.8747 17.4405 2
    endloop
  endfacet
  facet normal 0 0 1
    outer loop
      vertex 10.6387 18.5181 2
      vertex 10.7527 18.2124 2
      vertex 15.7703 18.6109 2
    endloop
  endfacet
  facet normal 0 0 1
    outer loop
      vertex 10.3164 18.9583 2
      vertex 10.493 18.7613 2
      vertex 15.5959 19.4869 2
    endloop
  endfacet
  facet normal 0 0 1
    outer loop
      vertex 10.8992 16.8312 2
      vertex 15.7734 13.8484 2
      vertex 15.8756 14.8452 2
    endloop
  endfacet
  facet normal 0 0 1
    outer loop
      vertex 10.1087 19.1085 2
      vertex 15.4824 19.8143 2
      vertex 15.3515 20.0683 2
    endloop
  endfacet
  facet normal 0 0 1
    outer loop
      vertex 10.1087 19.1085 2
      vertex 10.3164 18.9583 2
      vertex 15.4824 19.8143 2
    endloop
  endfacet
  facet normal 0 0 1
    outer loop
      vertex 9.12257 19.3489 2
      vertex 15.0363 20.4775 2
      vertex 14.6476 20.8247 2
    endloop
  endfacet
  facet normal 0 0 1
    outer loop
      vertex 9.12257 19.3489 2
      vertex 9.8699 19.2123 2
      vertex 15.0363 20.4775 2
    endloop
  endfacet
  facet normal 0 0 1
    outer loop
      vertex 10.8992 16.8312 2
      vertex 10.8992 15.4421 2
      vertex 15.7734 13.8484 2
    endloop
  endfacet
  facet normal 0 0 1
    outer loop
      vertex 7.89773 19.411 2
      vertex 14.1859 21.651 2
      vertex 14.6324 21.9843 2
    endloop
  endfacet
  facet normal 0 0 1
    outer loop
      vertex 7.89773 19.411 2
      vertex 13.6525 21.3332 2
      vertex 14.1859 21.651 2
    endloop
  endfacet
  facet normal 0 0 1
    outer loop
      vertex 7.89773 19.411 2
      vertex 14.1865 21.11 2
      vertex 13.6525 21.3332 2
    endloop
  endfacet
  facet normal 0 0 1
    outer loop
      vertex 7.89773 19.411 2
      vertex 9.12257 19.3489 2
      vertex 14.1865 21.11 2
    endloop
  endfacet
  facet normal 0 0 1
    outer loop
      vertex 9.13809 13.6065 2
      vertex 9.10084 14.6731 2
      vertex 4.09027 17.935 2
    endloop
  endfacet
  facet normal 0 0 1
    outer loop
      vertex 10.8526 23.6463 2
      vertex 15.544 26.8569 2
      vertex 15.4043 27.3606 2
    endloop
  endfacet
  facet normal 0 0 1
    outer loop
      vertex 10.8992 24.4958 2
      vertex 15.2248 27.8305 2
      vertex 15.0052 28.2663 2
    endloop
  endfacet
  facet normal 0 0 1
    outer loop
      vertex 10.8992 24.4958 2
      vertex 10.8526 23.6463 2
      vertex 15.2248 27.8305 2
    endloop
  endfacet
  facet normal 0 0 1
    outer loop
      vertex 10.8992 25.612 2
      vertex 14.7456 28.6676 2
      vertex 14.4461 29.0351 2
    endloop
  endfacet
  facet normal 0 0 1
    outer loop
      vertex 9.4062 27.1337 2
      vertex 9.56594 27.2461 2
      vertex 11.2325 30.3491 2
    endloop
  endfacet
  facet normal 0 0 1
    outer loop
      vertex 10.8433 26.4863 2
      vertex 14.0908 29.3636 2
      vertex 13.6632 29.6483 2
    endloop
  endfacet
  facet normal 0 0 1
    outer loop
      vertex 9.3427 22.3597 2
      vertex 15.2649 22.6975 2
      vertex 15.4655 23.1338 2
    endloop
  endfacet
  facet normal 0 0 1
    outer loop
      vertex 7.89773 22.3255 2
      vertex 14.9919 22.3331 2
      vertex 9.3427 22.3597 2
    endloop
  endfacet
  facet normal 0 0 1
    outer loop
      vertex 4.09027 25.5378 2
      vertex 4.09027 23.8261 2
      vertex 4.11087 26.2278 2
    endloop
  endfacet
  facet normal 0 0 1
    outer loop
      vertex 10.8526 23.6463 2
      vertex 10.7132 23.0573 2
      vertex 15.544 26.8569 2
    endloop
  endfacet
  facet normal 0 0 1
    outer loop
      vertex 9.3427 22.3597 2
      vertex 14.9919 22.3331 2
      vertex 15.2649 22.6975 2
    endloop
  endfacet
  facet normal 0 0 1
    outer loop
      vertex 10.0062 27.3361 2
      vertex 10.2201 27.3149 2
      vertex 11.9485 30.2396 2
    endloop
  endfacet
  facet normal 0 0 1
    outer loop
      vertex 10.4445 30.4146 2
      vertex 9.28682 26.9763 2
      vertex 11.2325 30.3491 2
    endloop
  endfacet
  facet normal 0 0 1
    outer loop
      vertex 9.56594 27.2461 2
      vertex 9.76604 27.3135 2
      vertex 11.2325 30.3491 2
    endloop
  endfacet
  facet normal 0 0 1
    outer loop
      vertex 9.76604 27.3135 2
      vertex 10.0062 27.3361 2
      vertex 11.9485 30.2396 2
    endloop
  endfacet
  facet normal 0 0 1
    outer loop
      vertex 11.2325 30.3491 2
      vertex 9.76604 27.3135 2
      vertex 11.9485 30.2396 2
    endloop
  endfacet
  facet normal 0 0 1
    outer loop
      vertex 7.89773 22.3255 2
      vertex 7.89773 19.411 2
      vertex 14.9919 22.3331 2
    endloop
  endfacet
  facet normal 0 0 1
    outer loop
      vertex 11.9485 30.2396 2
      vertex 10.2201 27.3149 2
      vertex 12.5922 30.0861 2
    endloop
  endfacet
  facet normal 0 0 1
    outer loop
      vertex 10.2201 27.3149 2
      vertex 10.403 27.2523 2
      vertex 12.5922 30.0861 2
    endloop
  endfacet
  facet normal 0 0 1
    outer loop
      vertex 12.5922 30.0861 2
      vertex 10.5551 27.1476 2
      vertex 13.1637 29.8891 2
    endloop
  endfacet
  facet normal 0 0 1
    outer loop
      vertex 9.3427 22.3597 2
      vertex 15.4655 23.1338 2
      vertex 10.1056 22.4618 2
    endloop
  endfacet
  facet normal 0 0 1
    outer loop
      vertex 10.5551 27.1476 2
      vertex 10.6759 27.0011 2
      vertex 13.1637 29.8891 2
    endloop
  endfacet
  facet normal 0 0 1
    outer loop
      vertex 10.1056 22.4618 2
      vertex 15.4655 23.1338 2
      vertex 15.6089 23.6867 2
    endloop
  endfacet
  facet normal 0 0 1
    outer loop
      vertex 10.6759 27.0011 2
      vertex 10.7736 26.7889 2
      vertex 13.1637 29.8891 2
    endloop
  endfacet
  facet normal 0 0 1
    outer loop
      vertex 10.8433 26.4863 2
      vertex 10.8992 25.612 2
      vertex 14.0908 29.3636 2
    endloop
  endfacet
  facet normal 0 0 1
    outer loop
      vertex 13.1637 29.8891 2
      vertex 10.8433 26.4863 2
      vertex 13.6632 29.6483 2
    endloop
  endfacet
  facet normal 0 0 1
    outer loop
      vertex 14.0908 29.3636 2
      vertex 10.8992 25.612 2
      vertex 14.4461 29.0351 2
    endloop
  endfacet
  facet normal 0 0 1
    outer loop
      vertex 10.3014 22.5502 2
      vertex 15.7237 25.1407 2
      vertex 15.6439 26.319 2
    endloop
  endfacet
  facet normal 0 0 1
    outer loop
      vertex 14.7456 28.6676 2
      vertex 10.8992 24.4958 2
      vertex 15.0052 28.2663 2
    endloop
  endfacet
  facet normal 0 0 1
    outer loop
      vertex 10.3014 22.5502 2
      vertex 15.695 24.3555 2
      vertex 15.7237 25.1407 2
    endloop
  endfacet
  facet normal 0 0 1
    outer loop
      vertex 15.2248 27.8305 2
      vertex 10.8526 23.6463 2
      vertex 15.4043 27.3606 2
    endloop
  endfacet
  facet normal 0 0 1
    outer loop
      vertex 15.544 26.8569 2
      vertex 10.7132 23.0573 2
      vertex 15.6439 26.319 2
    endloop
  endfacet
  facet normal 0 0 1
    outer loop
      vertex 10.7132 23.0573 2
      vertex 10.6054 22.8479 2
      vertex 15.6439 26.319 2
    endloop
  endfacet
  facet normal 0 0 1
    outer loop
      vertex 10.6054 22.8479 2
      vertex 10.4682 22.6789 2
      vertex 15.6439 26.319 2
    endloop
  endfacet
  facet normal 0 0 1
    outer loop
      vertex 10.4682 22.6789 2
      vertex 10.3014 22.5502 2
      vertex 15.6439 26.319 2
    endloop
  endfacet
  facet normal 0 0 1
    outer loop
      vertex 10.1056 22.4618 2
      vertex 15.695 24.3555 2
      vertex 10.3014 22.5502 2
    endloop
  endfacet
  facet normal 0 0 1
    outer loop
      vertex 10.8992 25.612 2
      vertex 10.8992 24.4958 2
      vertex 14.7456 28.6676 2
    endloop
  endfacet
  facet normal 0 0 1
    outer loop
      vertex 14.9919 22.3331 2
      vertex 7.89773 19.411 2
      vertex 14.6324 21.9843 2
    endloop
  endfacet
  facet normal 0 0 1
    outer loop
      vertex 14.1865 21.11 2
      vertex 9.12257 19.3489 2
      vertex 14.6476 20.8247 2
    endloop
  endfacet
  facet normal 0 0 1
    outer loop
      vertex 15.0363 20.4775 2
      vertex 9.8699 19.2123 2
      vertex 15.3515 20.0683 2
    endloop
  endfacet
  facet normal 0 0 1
    outer loop
      vertex 9.8699 19.2123 2
      vertex 10.1087 19.1085 2
      vertex 15.3515 20.0683 2
    endloop
  endfacet
  facet normal 0 0 1
    outer loop
      vertex 15.4824 19.8143 2
      vertex 10.3164 18.9583 2
      vertex 15.5959 19.4869 2
    endloop
  endfacet
  facet normal 0 0 1
    outer loop
      vertex 15.5959 19.4869 2
      vertex 10.493 18.7613 2
      vertex 15.7703 18.6109 2
    endloop
  endfacet
  facet normal 0 0 1
    outer loop
      vertex 10.493 18.7613 2
      vertex 10.6387 18.5181 2
      vertex 15.7703 18.6109 2
    endloop
  endfacet
  facet normal 0 0 1
    outer loop
      vertex 15.7703 18.6109 2
      vertex 10.7527 18.2124 2
      vertex 15.8747 17.4405 2
    endloop
  endfacet
  facet normal 0 0 1
    outer loop
      vertex 10.7527 18.2124 2
      vertex 10.834 17.8297 2
      vertex 15.8747 17.4405 2
    endloop
  endfacet
  facet normal 0 0 1
    outer loop
      vertex 15.8747 17.4405 2
      vertex 10.8992 16.8312 2
      vertex 15.9097 15.9755 2
    endloop
  endfacet
  facet normal 0 0 1
    outer loop
      vertex 15.7734 13.8484 2
      vertex 10.8992 15.4421 2
      vertex 15.6027 12.9848 2
    endloop
  endfacet
  facet normal 0 0 1
    outer loop
      vertex 15.0416 11.6361 2
      vertex 10.8526 13.9167 2
      vertex 14.62 11.095 2
    endloop
  endfacet
  facet normal 0 0 1
    outer loop
      vertex 14.62 11.095 2
      vertex 10.7945 13.4237 2
      vertex 14.099 10.6316 2
    endloop
  endfacet
  facet normal 0 0 1
    outer loop
      vertex 10.7945 13.4237 2
      vertex 10.7132 13.1104 2
      vertex 14.099 10.6316 2
    endloop
  endfacet
  facet normal 0 0 1
    outer loop
      vertex 14.099 10.6316 2
      vertex 10.5952 12.9151 2
      vertex 13.479 10.2456 2
    endloop
  endfacet
  facet normal 0 0 1
    outer loop
      vertex 9.10084 14.6731 2
      vertex 9.10084 17.935 2
      vertex 4.09027 17.935 2
    endloop
  endfacet
  facet normal 0 0 1
    outer loop
      vertex 10.5952 12.9151 2
      vertex 10.4278 12.7757 2
      vertex 13.479 10.2456 2
    endloop
  endfacet
  facet normal 0 0 1
    outer loop
      vertex 13.479 10.2456 2
      vertex 10.2108 12.6919 2
      vertex 12.7618 9.94724 2
    endloop
  endfacet
  facet normal 0 0 1
    outer loop
      vertex 10.2108 12.6919 2
      vertex 9.94412 12.6639 2
      vertex 12.7618 9.94724 2
    endloop
  endfacet
  facet normal 0 0 1
    outer loop
      vertex 12.7618 9.94724 2
      vertex 9.70084 12.6856 2
      vertex 11.9502 9.73388 2
    endloop
  endfacet
  facet normal 0 0 1
    outer loop
      vertex 9.70084 12.6856 2
      vertex 9.50385 12.7508 2
      vertex 11.9502 9.73388 2
    endloop
  endfacet
  facet normal 0 0 1
    outer loop
      vertex 9.50385 12.7508 2
      vertex 9.35343 12.8592 2
      vertex 11.9502 9.73388 2
    endloop
  endfacet
  facet normal 0 0 1
    outer loop
      vertex 10.7132 13.1104 2
      vertex 10.5952 12.9151 2
      vertex 14.099 10.6316 2
    endloop
  endfacet
  facet normal 0 0 1
    outer loop
      vertex 4.09027 23.8261 2
      vertex 4.17239 26.8591 2
      vertex 4.11087 26.2278 2
    endloop
  endfacet
  facet normal 0 0 1
    outer loop
      vertex 4.09027 23.8261 2
      vertex 4.27512 27.4323 2
      vertex 4.17239 26.8591 2
    endloop
  endfacet
  facet normal 0 0 1
    outer loop
      vertex 4.09027 23.8261 2
      vertex 4.41906 27.9468 2
      vertex 4.27512 27.4323 2
    endloop
  endfacet
  facet normal 0 0 1
    outer loop
      vertex 4.09027 23.8261 2
      vertex 4.60391 28.4029 2
      vertex 4.41906 27.9468 2
    endloop
  endfacet
  facet normal 0 0 1
    outer loop
      vertex 4.09027 23.8261 2
      vertex 4.82969 28.8003 2
      vertex 4.60391 28.4029 2
    endloop
  endfacet
  facet normal 0 0 1
    outer loop
      vertex 4.09027 23.8261 2
      vertex 5.09667 29.1392 2
      vertex 4.82969 28.8003 2
    endloop
  endfacet
  facet normal 0 0 1
    outer loop
      vertex 4.09027 23.8261 2
      vertex 5.40486 29.4194 2
      vertex 5.09667 29.1392 2
    endloop
  endfacet
  facet normal 0 0 1
    outer loop
      vertex 4.09027 23.8261 2
      vertex 5.75792 29.6579 2
      vertex 5.40486 29.4194 2
    endloop
  endfacet
  facet normal 0 0 1
    outer loop
      vertex 4.09027 23.8261 2
      vertex 6.15924 29.8645 2
      vertex 5.75792 29.6579 2
    endloop
  endfacet
  facet normal 0 0 1
    outer loop
      vertex 4.09027 23.8261 2
      vertex 6.60882 30.0392 2
      vertex 6.15924 29.8645 2
    endloop
  endfacet
  facet normal 0 0 1
    outer loop
      vertex 4.09027 23.8261 2
      vertex 7.10722 30.1823 2
      vertex 6.60882 30.0392 2
    endloop
  endfacet
  facet normal 0 0 1
    outer loop
      vertex 4.09027 23.8261 2
      vertex 8.24881 30.3731 2
      vertex 7.10722 30.1823 2
    endloop
  endfacet
  facet normal 0 0 1
    outer loop
      vertex 4.09027 23.8261 2
      vertex 9.58457 30.4366 2
      vertex 8.24881 30.3731 2
    endloop
  endfacet
  facet normal 0 0 1
    outer loop
      vertex 4.09027 23.8261 2
      vertex 10.4445 30.4146 2
      vertex 9.58457 30.4366 2
    endloop
  endfacet
  facet normal 0 0 1
    outer loop
      vertex 4.09027 23.8261 2
      vertex 9.28682 26.9763 2
      vertex 10.4445 30.4146 2
    endloop
  endfacet
  facet normal 0 0 1
    outer loop
      vertex 9.28682 26.9763 2
      vertex 9.4062 27.1337 2
      vertex 11.2325 30.3491 2
    endloop
  endfacet
  facet normal 0 0 1
    outer loop
      vertex 4.09027 23.8261 2
      vertex 9.20554 26.7522 2
      vertex 9.28682 26.9763 2
    endloop
  endfacet
  facet normal 0 0 1
    outer loop
      vertex 4.09027 23.8261 2
      vertex 9.14741 26.4276 2
      vertex 9.20554 26.7522 2
    endloop
  endfacet
  facet normal 0 0 1
    outer loop
      vertex 10.403 27.2523 2
      vertex 10.5551 27.1476 2
      vertex 12.5922 30.0861 2
    endloop
  endfacet
  facet normal 0 0 1
    outer loop
      vertex 4.09027 23.8261 2
      vertex 9.10084 25.4757 2
      vertex 9.14741 26.4276 2
    endloop
  endfacet
  facet normal 0 0 1
    outer loop
      vertex 10.7736 26.7889 2
      vertex 10.8433 26.4863 2
      vertex 13.1637 29.8891 2
    endloop
  endfacet
  facet normal 0 0 1
    outer loop
      vertex 10.1056 22.4618 2
      vertex 15.6089 23.6867 2
      vertex 15.695 24.3555 2
    endloop
  endfacet
  facet normal 0 0 1
    outer loop
      vertex 4.09027 23.8261 2
      vertex 9.10084 23.8261 2
      vertex 9.10084 25.4757 2
    endloop
  endfacet
endsolid OpenSCAD_Model
