solid OpenSCAD_Model
  facet normal -1 0 0
    outer loop
      vertex 0 0 0
      vertex 0 0 2
      vertex 0 40 0
    endloop
  endfacet
  facet normal -1 0 0
    outer loop
      vertex 0 40 0
      vertex 0 0 2
      vertex 0 4 2
    endloop
  endfacet
  facet normal -1 0 0
    outer loop
      vertex 0 40 0
      vertex 0 4 2
      vertex 0 4 5
    endloop
  endfacet
  facet normal -1 0 0
    outer loop
      vertex 0 36 2
      vertex 0 4 5
      vertex 0 36 5
    endloop
  endfacet
  facet normal -1 0 0
    outer loop
      vertex 0 40 0
      vertex 0 4 5
      vertex 0 36 2
    endloop
  endfacet
  facet normal -1 0 0
    outer loop
      vertex 0 40 2
      vertex 0 40 0
      vertex 0 36 2
    endloop
  endfacet
  facet normal 0 -1 0
    outer loop
      vertex 0 0 2
      vertex 0 0 0
      vertex 25 0 0
    endloop
  endfacet
  facet normal 0 -1 0
    outer loop
      vertex 25 0 2
      vertex 0 0 2
      vertex 25 0 0
    endloop
  endfacet
  facet normal 0 0 -1
    outer loop
      vertex 0 0 0
      vertex 0 40 0
      vertex 25 0 0
    endloop
  endfacet
  facet normal 0 0 -1
    outer loop
      vertex 25 0 0
      vertex 0 40 0
      vertex 25 40 0
    endloop
  endfacet
  facet normal 0 1 0
    outer loop
      vertex 0 40 0
      vertex 0 40 2
      vertex 25 40 0
    endloop
  endfacet
  facet normal 0 1 0
    outer loop
      vertex 25 40 0
      vertex 0 40 2
      vertex 25 40 2
    endloop
  endfacet
  facet normal 0 0 1
    outer loop
      vertex 0 40 2
      vertex 0 36 2
      vertex 25 36 2
    endloop
  endfacet
  facet normal 0 0 1
    outer loop
      vertex 25 40 2
      vertex 0 40 2
      vertex 25 36 2
    endloop
  endfacet
  facet normal 0 1 0
    outer loop
      vertex 0 36 2
      vertex 0 36 5
      vertex 25 36 2
    endloop
  endfacet
  facet normal 0 1 0
    outer loop
      vertex 25 36 2
      vertex 0 36 5
      vertex 25 36 5
    endloop
  endfacet
  facet normal 0 0 1
    outer loop
      vertex 2 6 5
      vertex 0 4 5
      vertex 25 4 5
    endloop
  endfacet
  facet normal 0 0 1
    outer loop
      vertex 23 6 5
      vertex 2 6 5
      vertex 25 4 5
    endloop
  endfacet
  facet normal 0 0 1
    outer loop
      vertex 0 36 5
      vertex 0 4 5
      vertex 2 6 5
    endloop
  endfacet
  facet normal 0 0 1
    outer loop
      vertex 25 36 5
      vertex 0 36 5
      vertex 2 34 5
    endloop
  endfacet
  facet normal 0 0 1
    outer loop
      vertex 25 36 5
      vertex 23 34 5
      vertex 25 4 5
    endloop
  endfacet
  facet normal 0 0 1
    outer loop
      vertex 25 36 5
      vertex 2 34 5
      vertex 23 34 5
    endloop
  endfacet
  facet normal 0 0 1
    outer loop
      vertex 23 34 5
      vertex 23 6 5
      vertex 25 4 5
    endloop
  endfacet
  facet normal 0 0 1
    outer loop
      vertex 2 6 5
      vertex 2 34 5
      vertex 0 36 5
    endloop
  endfacet
  facet normal 0 -1 0
    outer loop
      vertex 0 4 5
      vertex 0 4 2
      vertex 25 4 2
    endloop
  endfacet
  facet normal 0 -1 0
    outer loop
      vertex 25 4 5
      vertex 0 4 5
      vertex 25 4 2
    endloop
  endfacet
  facet normal 0 0 1
    outer loop
      vertex 0 4 2
      vertex 0 0 2
      vertex 25 0 2
    endloop
  endfacet
  facet normal 0 0 1
    outer loop
      vertex 25 4 2
      vertex 0 4 2
      vertex 25 0 2
    endloop
  endfacet
  facet normal 1 0 0
    outer loop
      vertex 25 0 2
      vertex 25 0 0
      vertex 25 40 0
    endloop
  endfacet
  facet normal 1 0 0
    outer loop
      vertex 25 4 2
      vertex 25 0 2
      vertex 25 40 0
    endloop
  endfacet
  facet normal 1 0 0
    outer loop
      vertex 25 36 2
      vertex 25 4 2
      vertex 25 40 0
    endloop
  endfacet
  facet normal 1 0 0
    outer loop
      vertex 25 40 2
      vertex 25 36 2
      vertex 25 40 0
    endloop
  endfacet
  facet normal 1 0 0
    outer loop
      vertex 25 36 5
      vertex 25 4 2
      vertex 25 36 2
    endloop
  endfacet
  facet normal 1 0 0
    outer loop
      vertex 25 4 5
      vertex 25 4 2
      vertex 25 36 5
    endloop
  endfacet
  facet normal 1 0 0
    outer loop
      vertex 2 34 2
      vertex 2 34 5
      vertex 2 6 5
    endloop
  endfacet
  facet normal 1 0 0
    outer loop
      vertex 2 6 2
      vertex 2 34 2
      vertex 2 6 5
    endloop
  endfacet
  facet normal 0 1 0
    outer loop
      vertex 23 6 5
      vertex 23 6 2
      vertex 2 6 5
    endloop
  endfacet
  facet normal 0 1 0
    outer loop
      vertex 2 6 5
      vertex 23 6 2
      vertex 2 6 2
    endloop
  endfacet
  facet normal -1 0 0
    outer loop
      vertex 23 34 5
      vertex 23 34 2
      vertex 23 6 5
    endloop
  endfacet
  facet normal -1 0 0
    outer loop
      vertex 23 6 5
      vertex 23 34 2
      vertex 23 6 2
    endloop
  endfacet
  facet normal 0 -1 0
    outer loop
      vertex 23 34 2
      vertex 23 34 5
      vertex 2 34 5
    endloop
  endfacet
  facet normal 0 -1 0
    outer loop
      vertex 2 34 2
      vertex 23 34 2
      vertex 2 34 5
    endloop
  endfacet
  facet normal 0 0 1
    outer loop
      vertex 2 34 2
      vertex 2 6 2
      vertex 23 6 2
    endloop
  endfacet
  facet normal 0 0 1
    outer loop
      vertex 23 34 2
      vertex 2 34 2
      vertex 23 6 2
    endloop
  endfacet
endsolid OpenSCAD_Model
